<mxfile host="app.diagrams.net" agent="Mozilla/5.0 (Windows NT 10.0; Win64; x64) AppleWebKit/537.36 (KHTML, like Gecko) Chrome/134.0.0.0 Safari/537.36" version="26.1.2" pages="4">
  <diagram id="R2lEEEUBdFMjLlhIrx00" name="Database ERD">
    <mxGraphModel grid="1" page="1" gridSize="10" guides="1" tooltips="1" connect="1" arrows="1" fold="1" pageScale="1" pageWidth="850" pageHeight="1100" math="0" shadow="0" extFonts="Permanent Marker^https://fonts.googleapis.com/css?family=Permanent+Marker">
      <root>
        <mxCell id="0" />
        <mxCell id="1" parent="0" />
        <mxCell id="J1xMdlODE-B5Do8n8Xwq-28" style="edgeStyle=orthogonalEdgeStyle;rounded=0;orthogonalLoop=1;jettySize=auto;html=1;endArrow=ERoneToMany;endFill=0;startArrow=ERmandOne;startFill=0;" edge="1" parent="1" source="C-vyLk0tnHw3VtMMgP7b-3" target="tOqlNHjPIyKXLNiAF7Rj-68">
          <mxGeometry relative="1" as="geometry" />
        </mxCell>
        <mxCell id="C-vyLk0tnHw3VtMMgP7b-2" value="CUSTOMER" style="shape=table;startSize=30;container=1;collapsible=1;childLayout=tableLayout;fixedRows=1;rowLines=0;fontStyle=1;align=center;resizeLast=1;" vertex="1" parent="1">
          <mxGeometry x="150" y="450" width="160" height="120" as="geometry" />
        </mxCell>
        <mxCell id="C-vyLk0tnHw3VtMMgP7b-3" value="" style="shape=partialRectangle;collapsible=0;dropTarget=0;pointerEvents=0;fillColor=none;points=[[0,0.5],[1,0.5]];portConstraint=eastwest;top=0;left=0;right=0;bottom=1;" vertex="1" parent="C-vyLk0tnHw3VtMMgP7b-2">
          <mxGeometry y="30" width="160" height="30" as="geometry" />
        </mxCell>
        <mxCell id="C-vyLk0tnHw3VtMMgP7b-4" value="PK" style="shape=partialRectangle;overflow=hidden;connectable=0;fillColor=none;top=0;left=0;bottom=0;right=0;fontStyle=1;" vertex="1" parent="C-vyLk0tnHw3VtMMgP7b-3">
          <mxGeometry width="30" height="30" as="geometry">
            <mxRectangle width="30" height="30" as="alternateBounds" />
          </mxGeometry>
        </mxCell>
        <mxCell id="C-vyLk0tnHw3VtMMgP7b-5" value="CustomerID" style="shape=partialRectangle;overflow=hidden;connectable=0;fillColor=none;top=0;left=0;bottom=0;right=0;align=left;spacingLeft=6;fontStyle=5;" vertex="1" parent="C-vyLk0tnHw3VtMMgP7b-3">
          <mxGeometry x="30" width="130" height="30" as="geometry">
            <mxRectangle width="130" height="30" as="alternateBounds" />
          </mxGeometry>
        </mxCell>
        <mxCell id="C-vyLk0tnHw3VtMMgP7b-6" value="" style="shape=partialRectangle;collapsible=0;dropTarget=0;pointerEvents=0;fillColor=none;points=[[0,0.5],[1,0.5]];portConstraint=eastwest;top=0;left=0;right=0;bottom=0;" vertex="1" parent="C-vyLk0tnHw3VtMMgP7b-2">
          <mxGeometry y="60" width="160" height="30" as="geometry" />
        </mxCell>
        <mxCell id="C-vyLk0tnHw3VtMMgP7b-7" value="" style="shape=partialRectangle;overflow=hidden;connectable=0;fillColor=none;top=0;left=0;bottom=0;right=0;" vertex="1" parent="C-vyLk0tnHw3VtMMgP7b-6">
          <mxGeometry width="30" height="30" as="geometry">
            <mxRectangle width="30" height="30" as="alternateBounds" />
          </mxGeometry>
        </mxCell>
        <mxCell id="C-vyLk0tnHw3VtMMgP7b-8" value="CustomerName" style="shape=partialRectangle;overflow=hidden;connectable=0;fillColor=none;top=0;left=0;bottom=0;right=0;align=left;spacingLeft=6;" vertex="1" parent="C-vyLk0tnHw3VtMMgP7b-6">
          <mxGeometry x="30" width="130" height="30" as="geometry">
            <mxRectangle width="130" height="30" as="alternateBounds" />
          </mxGeometry>
        </mxCell>
        <mxCell id="C-vyLk0tnHw3VtMMgP7b-9" value="" style="shape=partialRectangle;collapsible=0;dropTarget=0;pointerEvents=0;fillColor=none;points=[[0,0.5],[1,0.5]];portConstraint=eastwest;top=0;left=0;right=0;bottom=0;" vertex="1" parent="C-vyLk0tnHw3VtMMgP7b-2">
          <mxGeometry y="90" width="160" height="30" as="geometry" />
        </mxCell>
        <mxCell id="C-vyLk0tnHw3VtMMgP7b-10" value="FK" style="shape=partialRectangle;overflow=hidden;connectable=0;fillColor=none;top=0;left=0;bottom=0;right=0;" vertex="1" parent="C-vyLk0tnHw3VtMMgP7b-9">
          <mxGeometry width="30" height="30" as="geometry">
            <mxRectangle width="30" height="30" as="alternateBounds" />
          </mxGeometry>
        </mxCell>
        <mxCell id="C-vyLk0tnHw3VtMMgP7b-11" value="CountryID" style="shape=partialRectangle;overflow=hidden;connectable=0;fillColor=none;top=0;left=0;bottom=0;right=0;align=left;spacingLeft=6;fontStyle=2" vertex="1" parent="C-vyLk0tnHw3VtMMgP7b-9">
          <mxGeometry x="30" width="130" height="30" as="geometry">
            <mxRectangle width="130" height="30" as="alternateBounds" />
          </mxGeometry>
        </mxCell>
        <mxCell id="C-vyLk0tnHw3VtMMgP7b-13" value="COMMENT" style="shape=table;startSize=30;container=1;collapsible=1;childLayout=tableLayout;fixedRows=1;rowLines=0;fontStyle=1;align=center;resizeLast=1;" vertex="1" parent="1">
          <mxGeometry x="355" y="190" width="160" height="400" as="geometry" />
        </mxCell>
        <mxCell id="C-vyLk0tnHw3VtMMgP7b-14" value="" style="shape=partialRectangle;collapsible=0;dropTarget=0;pointerEvents=0;fillColor=none;points=[[0,0.5],[1,0.5]];portConstraint=eastwest;top=0;left=0;right=0;bottom=1;" vertex="1" parent="C-vyLk0tnHw3VtMMgP7b-13">
          <mxGeometry y="30" width="160" height="30" as="geometry" />
        </mxCell>
        <mxCell id="C-vyLk0tnHw3VtMMgP7b-15" value="PK" style="shape=partialRectangle;overflow=hidden;connectable=0;fillColor=none;top=0;left=0;bottom=0;right=0;fontStyle=1;" vertex="1" parent="C-vyLk0tnHw3VtMMgP7b-14">
          <mxGeometry width="35" height="30" as="geometry">
            <mxRectangle width="35" height="30" as="alternateBounds" />
          </mxGeometry>
        </mxCell>
        <mxCell id="C-vyLk0tnHw3VtMMgP7b-16" value="CmtID" style="shape=partialRectangle;overflow=hidden;connectable=0;fillColor=none;top=0;left=0;bottom=0;right=0;align=left;spacingLeft=6;fontStyle=5;" vertex="1" parent="C-vyLk0tnHw3VtMMgP7b-14">
          <mxGeometry x="35" width="125" height="30" as="geometry">
            <mxRectangle width="125" height="30" as="alternateBounds" />
          </mxGeometry>
        </mxCell>
        <mxCell id="tOqlNHjPIyKXLNiAF7Rj-68" style="shape=partialRectangle;collapsible=0;dropTarget=0;pointerEvents=0;fillColor=none;points=[[0,0.5],[1,0.5]];portConstraint=eastwest;top=0;left=0;right=0;bottom=0;" vertex="1" parent="C-vyLk0tnHw3VtMMgP7b-13">
          <mxGeometry y="60" width="160" height="30" as="geometry" />
        </mxCell>
        <mxCell id="tOqlNHjPIyKXLNiAF7Rj-69" value="FK" style="shape=partialRectangle;overflow=hidden;connectable=0;fillColor=none;top=0;left=0;bottom=0;right=0;" vertex="1" parent="tOqlNHjPIyKXLNiAF7Rj-68">
          <mxGeometry width="35" height="30" as="geometry">
            <mxRectangle width="35" height="30" as="alternateBounds" />
          </mxGeometry>
        </mxCell>
        <mxCell id="tOqlNHjPIyKXLNiAF7Rj-70" value="CustomerID" style="shape=partialRectangle;overflow=hidden;connectable=0;fillColor=none;top=0;left=0;bottom=0;right=0;align=left;spacingLeft=6;fontStyle=2" vertex="1" parent="tOqlNHjPIyKXLNiAF7Rj-68">
          <mxGeometry x="35" width="125" height="30" as="geometry">
            <mxRectangle width="125" height="30" as="alternateBounds" />
          </mxGeometry>
        </mxCell>
        <mxCell id="tOqlNHjPIyKXLNiAF7Rj-71" style="shape=partialRectangle;collapsible=0;dropTarget=0;pointerEvents=0;fillColor=none;points=[[0,0.5],[1,0.5]];portConstraint=eastwest;top=0;left=0;right=0;bottom=0;" vertex="1" parent="C-vyLk0tnHw3VtMMgP7b-13">
          <mxGeometry y="90" width="160" height="30" as="geometry" />
        </mxCell>
        <mxCell id="tOqlNHjPIyKXLNiAF7Rj-72" value="FK" style="shape=partialRectangle;overflow=hidden;connectable=0;fillColor=none;top=0;left=0;bottom=0;right=0;" vertex="1" parent="tOqlNHjPIyKXLNiAF7Rj-71">
          <mxGeometry width="35" height="30" as="geometry">
            <mxRectangle width="35" height="30" as="alternateBounds" />
          </mxGeometry>
        </mxCell>
        <mxCell id="tOqlNHjPIyKXLNiAF7Rj-73" value="HotelID" style="shape=partialRectangle;overflow=hidden;connectable=0;fillColor=none;top=0;left=0;bottom=0;right=0;align=left;spacingLeft=6;fontStyle=2" vertex="1" parent="tOqlNHjPIyKXLNiAF7Rj-71">
          <mxGeometry x="35" width="125" height="30" as="geometry">
            <mxRectangle width="125" height="30" as="alternateBounds" />
          </mxGeometry>
        </mxCell>
        <mxCell id="C-vyLk0tnHw3VtMMgP7b-17" value="" style="shape=partialRectangle;collapsible=0;dropTarget=0;pointerEvents=0;fillColor=none;points=[[0,0.5],[1,0.5]];portConstraint=eastwest;top=0;left=0;right=0;bottom=0;" vertex="1" parent="C-vyLk0tnHw3VtMMgP7b-13">
          <mxGeometry y="120" width="160" height="30" as="geometry" />
        </mxCell>
        <mxCell id="C-vyLk0tnHw3VtMMgP7b-18" value="" style="shape=partialRectangle;overflow=hidden;connectable=0;fillColor=none;top=0;left=0;bottom=0;right=0;" vertex="1" parent="C-vyLk0tnHw3VtMMgP7b-17">
          <mxGeometry width="35" height="30" as="geometry">
            <mxRectangle width="35" height="30" as="alternateBounds" />
          </mxGeometry>
        </mxCell>
        <mxCell id="C-vyLk0tnHw3VtMMgP7b-19" value="ReviewRating" style="shape=partialRectangle;overflow=hidden;connectable=0;fillColor=none;top=0;left=0;bottom=0;right=0;align=left;spacingLeft=6;" vertex="1" parent="C-vyLk0tnHw3VtMMgP7b-17">
          <mxGeometry x="35" width="125" height="30" as="geometry">
            <mxRectangle width="125" height="30" as="alternateBounds" />
          </mxGeometry>
        </mxCell>
        <mxCell id="C-vyLk0tnHw3VtMMgP7b-20" value="" style="shape=partialRectangle;collapsible=0;dropTarget=0;pointerEvents=0;fillColor=none;points=[[0,0.5],[1,0.5]];portConstraint=eastwest;top=0;left=0;right=0;bottom=0;" vertex="1" parent="C-vyLk0tnHw3VtMMgP7b-13">
          <mxGeometry y="150" width="160" height="30" as="geometry" />
        </mxCell>
        <mxCell id="C-vyLk0tnHw3VtMMgP7b-21" value="" style="shape=partialRectangle;overflow=hidden;connectable=0;fillColor=none;top=0;left=0;bottom=0;right=0;" vertex="1" parent="C-vyLk0tnHw3VtMMgP7b-20">
          <mxGeometry width="35" height="30" as="geometry">
            <mxRectangle width="35" height="30" as="alternateBounds" />
          </mxGeometry>
        </mxCell>
        <mxCell id="C-vyLk0tnHw3VtMMgP7b-22" value="ReviewTitle" style="shape=partialRectangle;overflow=hidden;connectable=0;fillColor=none;top=0;left=0;bottom=0;right=0;align=left;spacingLeft=6;" vertex="1" parent="C-vyLk0tnHw3VtMMgP7b-20">
          <mxGeometry x="35" width="125" height="30" as="geometry">
            <mxRectangle width="125" height="30" as="alternateBounds" />
          </mxGeometry>
        </mxCell>
        <mxCell id="tOqlNHjPIyKXLNiAF7Rj-22" style="shape=partialRectangle;collapsible=0;dropTarget=0;pointerEvents=0;fillColor=none;points=[[0,0.5],[1,0.5]];portConstraint=eastwest;top=0;left=0;right=0;bottom=0;" vertex="1" parent="C-vyLk0tnHw3VtMMgP7b-13">
          <mxGeometry y="180" width="160" height="30" as="geometry" />
        </mxCell>
        <mxCell id="tOqlNHjPIyKXLNiAF7Rj-23" style="shape=partialRectangle;overflow=hidden;connectable=0;fillColor=none;top=0;left=0;bottom=0;right=0;" vertex="1" parent="tOqlNHjPIyKXLNiAF7Rj-22">
          <mxGeometry width="35" height="30" as="geometry">
            <mxRectangle width="35" height="30" as="alternateBounds" />
          </mxGeometry>
        </mxCell>
        <mxCell id="tOqlNHjPIyKXLNiAF7Rj-24" value="ReviewContent" style="shape=partialRectangle;overflow=hidden;connectable=0;fillColor=none;top=0;left=0;bottom=0;right=0;align=left;spacingLeft=6;" vertex="1" parent="tOqlNHjPIyKXLNiAF7Rj-22">
          <mxGeometry x="35" width="125" height="30" as="geometry">
            <mxRectangle width="125" height="30" as="alternateBounds" />
          </mxGeometry>
        </mxCell>
        <mxCell id="tOqlNHjPIyKXLNiAF7Rj-25" style="shape=partialRectangle;collapsible=0;dropTarget=0;pointerEvents=0;fillColor=none;points=[[0,0.5],[1,0.5]];portConstraint=eastwest;top=0;left=0;right=0;bottom=0;" vertex="1" parent="C-vyLk0tnHw3VtMMgP7b-13">
          <mxGeometry y="210" width="160" height="30" as="geometry" />
        </mxCell>
        <mxCell id="tOqlNHjPIyKXLNiAF7Rj-26" style="shape=partialRectangle;overflow=hidden;connectable=0;fillColor=none;top=0;left=0;bottom=0;right=0;" vertex="1" parent="tOqlNHjPIyKXLNiAF7Rj-25">
          <mxGeometry width="35" height="30" as="geometry">
            <mxRectangle width="35" height="30" as="alternateBounds" />
          </mxGeometry>
        </mxCell>
        <mxCell id="tOqlNHjPIyKXLNiAF7Rj-27" value="DateVisited" style="shape=partialRectangle;overflow=hidden;connectable=0;fillColor=none;top=0;left=0;bottom=0;right=0;align=left;spacingLeft=6;" vertex="1" parent="tOqlNHjPIyKXLNiAF7Rj-25">
          <mxGeometry x="35" width="125" height="30" as="geometry">
            <mxRectangle width="125" height="30" as="alternateBounds" />
          </mxGeometry>
        </mxCell>
        <mxCell id="tOqlNHjPIyKXLNiAF7Rj-28" style="shape=partialRectangle;collapsible=0;dropTarget=0;pointerEvents=0;fillColor=none;points=[[0,0.5],[1,0.5]];portConstraint=eastwest;top=0;left=0;right=0;bottom=0;" vertex="1" parent="C-vyLk0tnHw3VtMMgP7b-13">
          <mxGeometry y="240" width="160" height="30" as="geometry" />
        </mxCell>
        <mxCell id="tOqlNHjPIyKXLNiAF7Rj-29" style="shape=partialRectangle;overflow=hidden;connectable=0;fillColor=none;top=0;left=0;bottom=0;right=0;" vertex="1" parent="tOqlNHjPIyKXLNiAF7Rj-28">
          <mxGeometry width="35" height="30" as="geometry">
            <mxRectangle width="35" height="30" as="alternateBounds" />
          </mxGeometry>
        </mxCell>
        <mxCell id="tOqlNHjPIyKXLNiAF7Rj-30" value="DateReviewed" style="shape=partialRectangle;overflow=hidden;connectable=0;fillColor=none;top=0;left=0;bottom=0;right=0;align=left;spacingLeft=6;" vertex="1" parent="tOqlNHjPIyKXLNiAF7Rj-28">
          <mxGeometry x="35" width="125" height="30" as="geometry">
            <mxRectangle width="125" height="30" as="alternateBounds" />
          </mxGeometry>
        </mxCell>
        <mxCell id="ZJFlOkseIiuC1OArK8Se-1" style="shape=partialRectangle;collapsible=0;dropTarget=0;pointerEvents=0;fillColor=none;points=[[0,0.5],[1,0.5]];portConstraint=eastwest;top=0;left=0;right=0;bottom=0;" vertex="1" parent="C-vyLk0tnHw3VtMMgP7b-13">
          <mxGeometry y="270" width="160" height="30" as="geometry" />
        </mxCell>
        <mxCell id="ZJFlOkseIiuC1OArK8Se-2" style="shape=partialRectangle;overflow=hidden;connectable=0;fillColor=none;top=0;left=0;bottom=0;right=0;" vertex="1" parent="ZJFlOkseIiuC1OArK8Se-1">
          <mxGeometry width="35" height="30" as="geometry">
            <mxRectangle width="35" height="30" as="alternateBounds" />
          </mxGeometry>
        </mxCell>
        <mxCell id="ZJFlOkseIiuC1OArK8Se-3" value="TripType" style="shape=partialRectangle;overflow=hidden;connectable=0;fillColor=none;top=0;left=0;bottom=0;right=0;align=left;spacingLeft=6;" vertex="1" parent="ZJFlOkseIiuC1OArK8Se-1">
          <mxGeometry x="35" width="125" height="30" as="geometry">
            <mxRectangle width="125" height="30" as="alternateBounds" />
          </mxGeometry>
        </mxCell>
        <mxCell id="si8elEZ1SWjWoaN4CeEJ-1" style="shape=partialRectangle;collapsible=0;dropTarget=0;pointerEvents=0;fillColor=none;points=[[0,0.5],[1,0.5]];portConstraint=eastwest;top=0;left=0;right=0;bottom=0;" vertex="1" parent="C-vyLk0tnHw3VtMMgP7b-13">
          <mxGeometry y="300" width="160" height="30" as="geometry" />
        </mxCell>
        <mxCell id="si8elEZ1SWjWoaN4CeEJ-2" style="shape=partialRectangle;overflow=hidden;connectable=0;fillColor=none;top=0;left=0;bottom=0;right=0;" vertex="1" parent="si8elEZ1SWjWoaN4CeEJ-1">
          <mxGeometry width="35" height="30" as="geometry">
            <mxRectangle width="35" height="30" as="alternateBounds" />
          </mxGeometry>
        </mxCell>
        <mxCell id="si8elEZ1SWjWoaN4CeEJ-3" value="Duration" style="shape=partialRectangle;overflow=hidden;connectable=0;fillColor=none;top=0;left=0;bottom=0;right=0;align=left;spacingLeft=6;" vertex="1" parent="si8elEZ1SWjWoaN4CeEJ-1">
          <mxGeometry x="35" width="125" height="30" as="geometry">
            <mxRectangle width="125" height="30" as="alternateBounds" />
          </mxGeometry>
        </mxCell>
        <mxCell id="J1xMdlODE-B5Do8n8Xwq-29" style="shape=partialRectangle;collapsible=0;dropTarget=0;pointerEvents=0;fillColor=none;points=[[0,0.5],[1,0.5]];portConstraint=eastwest;top=0;left=0;right=0;bottom=0;" vertex="1" parent="C-vyLk0tnHw3VtMMgP7b-13">
          <mxGeometry y="330" width="160" height="30" as="geometry" />
        </mxCell>
        <mxCell id="J1xMdlODE-B5Do8n8Xwq-30" style="shape=partialRectangle;overflow=hidden;connectable=0;fillColor=none;top=0;left=0;bottom=0;right=0;" vertex="1" parent="J1xMdlODE-B5Do8n8Xwq-29">
          <mxGeometry width="35" height="30" as="geometry">
            <mxRectangle width="35" height="30" as="alternateBounds" />
          </mxGeometry>
        </mxCell>
        <mxCell id="J1xMdlODE-B5Do8n8Xwq-31" value="RoomType" style="shape=partialRectangle;overflow=hidden;connectable=0;fillColor=none;top=0;left=0;bottom=0;right=0;align=left;spacingLeft=6;" vertex="1" parent="J1xMdlODE-B5Do8n8Xwq-29">
          <mxGeometry x="35" width="125" height="30" as="geometry">
            <mxRectangle width="125" height="30" as="alternateBounds" />
          </mxGeometry>
        </mxCell>
        <mxCell id="Lam1AJtRqrxp9uYnha4o-1" style="shape=partialRectangle;collapsible=0;dropTarget=0;pointerEvents=0;fillColor=none;points=[[0,0.5],[1,0.5]];portConstraint=eastwest;top=0;left=0;right=0;bottom=0;" vertex="1" parent="C-vyLk0tnHw3VtMMgP7b-13">
          <mxGeometry y="360" width="160" height="30" as="geometry" />
        </mxCell>
        <mxCell id="Lam1AJtRqrxp9uYnha4o-2" style="shape=partialRectangle;overflow=hidden;connectable=0;fillColor=none;top=0;left=0;bottom=0;right=0;" vertex="1" parent="Lam1AJtRqrxp9uYnha4o-1">
          <mxGeometry width="35" height="30" as="geometry">
            <mxRectangle width="35" height="30" as="alternateBounds" />
          </mxGeometry>
        </mxCell>
        <mxCell id="Lam1AJtRqrxp9uYnha4o-3" value="Label" style="shape=partialRectangle;overflow=hidden;connectable=0;fillColor=none;top=0;left=0;bottom=0;right=0;align=left;spacingLeft=6;" vertex="1" parent="Lam1AJtRqrxp9uYnha4o-1">
          <mxGeometry x="35" width="125" height="30" as="geometry">
            <mxRectangle width="125" height="30" as="alternateBounds" />
          </mxGeometry>
        </mxCell>
        <mxCell id="C-vyLk0tnHw3VtMMgP7b-23" value="HOTEL" style="shape=table;startSize=30;container=1;collapsible=1;childLayout=tableLayout;fixedRows=1;rowLines=0;fontStyle=1;align=center;resizeLast=1;" vertex="1" parent="1">
          <mxGeometry x="560" y="440" width="160" height="210" as="geometry" />
        </mxCell>
        <mxCell id="C-vyLk0tnHw3VtMMgP7b-24" value="" style="shape=partialRectangle;collapsible=0;dropTarget=0;pointerEvents=0;fillColor=none;points=[[0,0.5],[1,0.5]];portConstraint=eastwest;top=0;left=0;right=0;bottom=1;" vertex="1" parent="C-vyLk0tnHw3VtMMgP7b-23">
          <mxGeometry y="30" width="160" height="30" as="geometry" />
        </mxCell>
        <mxCell id="C-vyLk0tnHw3VtMMgP7b-25" value="PK" style="shape=partialRectangle;overflow=hidden;connectable=0;fillColor=none;top=0;left=0;bottom=0;right=0;fontStyle=1;" vertex="1" parent="C-vyLk0tnHw3VtMMgP7b-24">
          <mxGeometry width="30" height="30" as="geometry">
            <mxRectangle width="30" height="30" as="alternateBounds" />
          </mxGeometry>
        </mxCell>
        <mxCell id="C-vyLk0tnHw3VtMMgP7b-26" value="HotelID" style="shape=partialRectangle;overflow=hidden;connectable=0;fillColor=none;top=0;left=0;bottom=0;right=0;align=left;spacingLeft=6;fontStyle=5;strokeWidth=0;" vertex="1" parent="C-vyLk0tnHw3VtMMgP7b-24">
          <mxGeometry x="30" width="130" height="30" as="geometry">
            <mxRectangle width="130" height="30" as="alternateBounds" />
          </mxGeometry>
        </mxCell>
        <mxCell id="C-vyLk0tnHw3VtMMgP7b-27" value="" style="shape=partialRectangle;collapsible=0;dropTarget=0;pointerEvents=0;fillColor=none;points=[[0,0.5],[1,0.5]];portConstraint=eastwest;top=0;left=0;right=0;bottom=0;" vertex="1" parent="C-vyLk0tnHw3VtMMgP7b-23">
          <mxGeometry y="60" width="160" height="30" as="geometry" />
        </mxCell>
        <mxCell id="C-vyLk0tnHw3VtMMgP7b-28" value="" style="shape=partialRectangle;overflow=hidden;connectable=0;fillColor=none;top=0;left=0;bottom=0;right=0;" vertex="1" parent="C-vyLk0tnHw3VtMMgP7b-27">
          <mxGeometry width="30" height="30" as="geometry">
            <mxRectangle width="30" height="30" as="alternateBounds" />
          </mxGeometry>
        </mxCell>
        <mxCell id="C-vyLk0tnHw3VtMMgP7b-29" value="HotelName" style="shape=partialRectangle;overflow=hidden;connectable=0;fillColor=none;top=0;left=0;bottom=0;right=0;align=left;spacingLeft=6;" vertex="1" parent="C-vyLk0tnHw3VtMMgP7b-27">
          <mxGeometry x="30" width="130" height="30" as="geometry">
            <mxRectangle width="130" height="30" as="alternateBounds" />
          </mxGeometry>
        </mxCell>
        <mxCell id="tOqlNHjPIyKXLNiAF7Rj-7" style="shape=partialRectangle;collapsible=0;dropTarget=0;pointerEvents=0;fillColor=none;points=[[0,0.5],[1,0.5]];portConstraint=eastwest;top=0;left=0;right=0;bottom=0;" vertex="1" parent="C-vyLk0tnHw3VtMMgP7b-23">
          <mxGeometry y="90" width="160" height="30" as="geometry" />
        </mxCell>
        <mxCell id="tOqlNHjPIyKXLNiAF7Rj-8" style="shape=partialRectangle;overflow=hidden;connectable=0;fillColor=none;top=0;left=0;bottom=0;right=0;" vertex="1" parent="tOqlNHjPIyKXLNiAF7Rj-7">
          <mxGeometry width="30" height="30" as="geometry">
            <mxRectangle width="30" height="30" as="alternateBounds" />
          </mxGeometry>
        </mxCell>
        <mxCell id="tOqlNHjPIyKXLNiAF7Rj-9" value="HotelAddress" style="shape=partialRectangle;overflow=hidden;connectable=0;fillColor=none;top=0;left=0;bottom=0;right=0;align=left;spacingLeft=6;" vertex="1" parent="tOqlNHjPIyKXLNiAF7Rj-7">
          <mxGeometry x="30" width="130" height="30" as="geometry">
            <mxRectangle width="130" height="30" as="alternateBounds" />
          </mxGeometry>
        </mxCell>
        <mxCell id="tOqlNHjPIyKXLNiAF7Rj-13" style="shape=partialRectangle;collapsible=0;dropTarget=0;pointerEvents=0;fillColor=none;points=[[0,0.5],[1,0.5]];portConstraint=eastwest;top=0;left=0;right=0;bottom=0;" vertex="1" parent="C-vyLk0tnHw3VtMMgP7b-23">
          <mxGeometry y="120" width="160" height="30" as="geometry" />
        </mxCell>
        <mxCell id="tOqlNHjPIyKXLNiAF7Rj-14" style="shape=partialRectangle;overflow=hidden;connectable=0;fillColor=none;top=0;left=0;bottom=0;right=0;" vertex="1" parent="tOqlNHjPIyKXLNiAF7Rj-13">
          <mxGeometry width="30" height="30" as="geometry">
            <mxRectangle width="30" height="30" as="alternateBounds" />
          </mxGeometry>
        </mxCell>
        <mxCell id="tOqlNHjPIyKXLNiAF7Rj-15" value="HotelRating" style="shape=partialRectangle;overflow=hidden;connectable=0;fillColor=none;top=0;left=0;bottom=0;right=0;align=left;spacingLeft=6;" vertex="1" parent="tOqlNHjPIyKXLNiAF7Rj-13">
          <mxGeometry x="30" width="130" height="30" as="geometry">
            <mxRectangle width="130" height="30" as="alternateBounds" />
          </mxGeometry>
        </mxCell>
        <mxCell id="tOqlNHjPIyKXLNiAF7Rj-16" style="shape=partialRectangle;collapsible=0;dropTarget=0;pointerEvents=0;fillColor=none;points=[[0,0.5],[1,0.5]];portConstraint=eastwest;top=0;left=0;right=0;bottom=0;" vertex="1" parent="C-vyLk0tnHw3VtMMgP7b-23">
          <mxGeometry y="150" width="160" height="30" as="geometry" />
        </mxCell>
        <mxCell id="tOqlNHjPIyKXLNiAF7Rj-17" style="shape=partialRectangle;overflow=hidden;connectable=0;fillColor=none;top=0;left=0;bottom=0;right=0;" vertex="1" parent="tOqlNHjPIyKXLNiAF7Rj-16">
          <mxGeometry width="30" height="30" as="geometry">
            <mxRectangle width="30" height="30" as="alternateBounds" />
          </mxGeometry>
        </mxCell>
        <mxCell id="tOqlNHjPIyKXLNiAF7Rj-18" value="HotelReviews" style="shape=partialRectangle;overflow=hidden;connectable=0;fillColor=none;top=0;left=0;bottom=0;right=0;align=left;spacingLeft=6;" vertex="1" parent="tOqlNHjPIyKXLNiAF7Rj-16">
          <mxGeometry x="30" width="130" height="30" as="geometry">
            <mxRectangle width="130" height="30" as="alternateBounds" />
          </mxGeometry>
        </mxCell>
        <mxCell id="J1xMdlODE-B5Do8n8Xwq-1" style="shape=partialRectangle;collapsible=0;dropTarget=0;pointerEvents=0;fillColor=none;points=[[0,0.5],[1,0.5]];portConstraint=eastwest;top=0;left=0;right=0;bottom=0;" vertex="1" parent="C-vyLk0tnHw3VtMMgP7b-23">
          <mxGeometry y="180" width="160" height="30" as="geometry" />
        </mxCell>
        <mxCell id="J1xMdlODE-B5Do8n8Xwq-2" value="FK" style="shape=partialRectangle;overflow=hidden;connectable=0;fillColor=none;top=0;left=0;bottom=0;right=0;" vertex="1" parent="J1xMdlODE-B5Do8n8Xwq-1">
          <mxGeometry width="30" height="30" as="geometry">
            <mxRectangle width="30" height="30" as="alternateBounds" />
          </mxGeometry>
        </mxCell>
        <mxCell id="J1xMdlODE-B5Do8n8Xwq-3" value="CountryID" style="shape=partialRectangle;overflow=hidden;connectable=0;fillColor=none;top=0;left=0;bottom=0;right=0;align=left;spacingLeft=6;fontStyle=2" vertex="1" parent="J1xMdlODE-B5Do8n8Xwq-1">
          <mxGeometry x="30" width="130" height="30" as="geometry">
            <mxRectangle width="130" height="30" as="alternateBounds" />
          </mxGeometry>
        </mxCell>
        <mxCell id="tOqlNHjPIyKXLNiAF7Rj-31" value="COUNTRY" style="shape=table;startSize=30;container=1;collapsible=1;childLayout=tableLayout;fixedRows=1;rowLines=0;fontStyle=1;align=center;resizeLast=1;" vertex="1" parent="1">
          <mxGeometry x="150" y="590" width="160" height="90" as="geometry" />
        </mxCell>
        <mxCell id="tOqlNHjPIyKXLNiAF7Rj-32" value="" style="shape=partialRectangle;collapsible=0;dropTarget=0;pointerEvents=0;fillColor=none;points=[[0,0.5],[1,0.5]];portConstraint=eastwest;top=0;left=0;right=0;bottom=1;" vertex="1" parent="tOqlNHjPIyKXLNiAF7Rj-31">
          <mxGeometry y="30" width="160" height="30" as="geometry" />
        </mxCell>
        <mxCell id="tOqlNHjPIyKXLNiAF7Rj-33" value="PK" style="shape=partialRectangle;overflow=hidden;connectable=0;fillColor=none;top=0;left=0;bottom=0;right=0;fontStyle=1;" vertex="1" parent="tOqlNHjPIyKXLNiAF7Rj-32">
          <mxGeometry width="30" height="30" as="geometry">
            <mxRectangle width="30" height="30" as="alternateBounds" />
          </mxGeometry>
        </mxCell>
        <mxCell id="tOqlNHjPIyKXLNiAF7Rj-34" value="CountryID" style="shape=partialRectangle;overflow=hidden;connectable=0;fillColor=none;top=0;left=0;bottom=0;right=0;align=left;spacingLeft=6;fontStyle=5;" vertex="1" parent="tOqlNHjPIyKXLNiAF7Rj-32">
          <mxGeometry x="30" width="130" height="30" as="geometry">
            <mxRectangle width="130" height="30" as="alternateBounds" />
          </mxGeometry>
        </mxCell>
        <mxCell id="tOqlNHjPIyKXLNiAF7Rj-35" value="" style="shape=partialRectangle;collapsible=0;dropTarget=0;pointerEvents=0;fillColor=none;points=[[0,0.5],[1,0.5]];portConstraint=eastwest;top=0;left=0;right=0;bottom=0;" vertex="1" parent="tOqlNHjPIyKXLNiAF7Rj-31">
          <mxGeometry y="60" width="160" height="30" as="geometry" />
        </mxCell>
        <mxCell id="tOqlNHjPIyKXLNiAF7Rj-36" value="" style="shape=partialRectangle;overflow=hidden;connectable=0;fillColor=none;top=0;left=0;bottom=0;right=0;" vertex="1" parent="tOqlNHjPIyKXLNiAF7Rj-35">
          <mxGeometry width="30" height="30" as="geometry">
            <mxRectangle width="30" height="30" as="alternateBounds" />
          </mxGeometry>
        </mxCell>
        <mxCell id="tOqlNHjPIyKXLNiAF7Rj-37" value="CountryName" style="shape=partialRectangle;overflow=hidden;connectable=0;fillColor=none;top=0;left=0;bottom=0;right=0;align=left;spacingLeft=6;" vertex="1" parent="tOqlNHjPIyKXLNiAF7Rj-35">
          <mxGeometry x="30" width="130" height="30" as="geometry">
            <mxRectangle width="130" height="30" as="alternateBounds" />
          </mxGeometry>
        </mxCell>
        <mxCell id="tOqlNHjPIyKXLNiAF7Rj-44" value="USERAPP" style="shape=table;startSize=30;container=1;collapsible=1;childLayout=tableLayout;fixedRows=1;rowLines=0;fontStyle=1;align=center;resizeLast=1;" vertex="1" parent="1">
          <mxGeometry x="150" y="190" width="160" height="240" as="geometry" />
        </mxCell>
        <mxCell id="tOqlNHjPIyKXLNiAF7Rj-45" value="" style="shape=partialRectangle;collapsible=0;dropTarget=0;pointerEvents=0;fillColor=none;points=[[0,0.5],[1,0.5]];portConstraint=eastwest;top=0;left=0;right=0;bottom=1;" vertex="1" parent="tOqlNHjPIyKXLNiAF7Rj-44">
          <mxGeometry y="30" width="160" height="30" as="geometry" />
        </mxCell>
        <mxCell id="tOqlNHjPIyKXLNiAF7Rj-46" value="PK" style="shape=partialRectangle;overflow=hidden;connectable=0;fillColor=none;top=0;left=0;bottom=0;right=0;fontStyle=1;" vertex="1" parent="tOqlNHjPIyKXLNiAF7Rj-45">
          <mxGeometry width="30" height="30" as="geometry">
            <mxRectangle width="30" height="30" as="alternateBounds" />
          </mxGeometry>
        </mxCell>
        <mxCell id="tOqlNHjPIyKXLNiAF7Rj-47" value="UserAppID" style="shape=partialRectangle;overflow=hidden;connectable=0;fillColor=none;top=0;left=0;bottom=0;right=0;align=left;spacingLeft=6;fontStyle=5;" vertex="1" parent="tOqlNHjPIyKXLNiAF7Rj-45">
          <mxGeometry x="30" width="130" height="30" as="geometry">
            <mxRectangle width="130" height="30" as="alternateBounds" />
          </mxGeometry>
        </mxCell>
        <mxCell id="tOqlNHjPIyKXLNiAF7Rj-48" value="" style="shape=partialRectangle;collapsible=0;dropTarget=0;pointerEvents=0;fillColor=none;points=[[0,0.5],[1,0.5]];portConstraint=eastwest;top=0;left=0;right=0;bottom=0;" vertex="1" parent="tOqlNHjPIyKXLNiAF7Rj-44">
          <mxGeometry y="60" width="160" height="30" as="geometry" />
        </mxCell>
        <mxCell id="tOqlNHjPIyKXLNiAF7Rj-49" value="" style="shape=partialRectangle;overflow=hidden;connectable=0;fillColor=none;top=0;left=0;bottom=0;right=0;" vertex="1" parent="tOqlNHjPIyKXLNiAF7Rj-48">
          <mxGeometry width="30" height="30" as="geometry">
            <mxRectangle width="30" height="30" as="alternateBounds" />
          </mxGeometry>
        </mxCell>
        <mxCell id="tOqlNHjPIyKXLNiAF7Rj-50" value="UserName" style="shape=partialRectangle;overflow=hidden;connectable=0;fillColor=none;top=0;left=0;bottom=0;right=0;align=left;spacingLeft=6;" vertex="1" parent="tOqlNHjPIyKXLNiAF7Rj-48">
          <mxGeometry x="30" width="130" height="30" as="geometry">
            <mxRectangle width="130" height="30" as="alternateBounds" />
          </mxGeometry>
        </mxCell>
        <mxCell id="tOqlNHjPIyKXLNiAF7Rj-51" value="" style="shape=partialRectangle;collapsible=0;dropTarget=0;pointerEvents=0;fillColor=none;points=[[0,0.5],[1,0.5]];portConstraint=eastwest;top=0;left=0;right=0;bottom=0;" vertex="1" parent="tOqlNHjPIyKXLNiAF7Rj-44">
          <mxGeometry y="90" width="160" height="30" as="geometry" />
        </mxCell>
        <mxCell id="tOqlNHjPIyKXLNiAF7Rj-52" value="" style="shape=partialRectangle;overflow=hidden;connectable=0;fillColor=none;top=0;left=0;bottom=0;right=0;" vertex="1" parent="tOqlNHjPIyKXLNiAF7Rj-51">
          <mxGeometry width="30" height="30" as="geometry">
            <mxRectangle width="30" height="30" as="alternateBounds" />
          </mxGeometry>
        </mxCell>
        <mxCell id="tOqlNHjPIyKXLNiAF7Rj-53" value="FirstName" style="shape=partialRectangle;overflow=hidden;connectable=0;fillColor=none;top=0;left=0;bottom=0;right=0;align=left;spacingLeft=6;" vertex="1" parent="tOqlNHjPIyKXLNiAF7Rj-51">
          <mxGeometry x="30" width="130" height="30" as="geometry">
            <mxRectangle width="130" height="30" as="alternateBounds" />
          </mxGeometry>
        </mxCell>
        <mxCell id="tOqlNHjPIyKXLNiAF7Rj-54" style="shape=partialRectangle;collapsible=0;dropTarget=0;pointerEvents=0;fillColor=none;points=[[0,0.5],[1,0.5]];portConstraint=eastwest;top=0;left=0;right=0;bottom=0;" vertex="1" parent="tOqlNHjPIyKXLNiAF7Rj-44">
          <mxGeometry y="120" width="160" height="30" as="geometry" />
        </mxCell>
        <mxCell id="tOqlNHjPIyKXLNiAF7Rj-55" style="shape=partialRectangle;overflow=hidden;connectable=0;fillColor=none;top=0;left=0;bottom=0;right=0;" vertex="1" parent="tOqlNHjPIyKXLNiAF7Rj-54">
          <mxGeometry width="30" height="30" as="geometry">
            <mxRectangle width="30" height="30" as="alternateBounds" />
          </mxGeometry>
        </mxCell>
        <mxCell id="tOqlNHjPIyKXLNiAF7Rj-56" value="LastName" style="shape=partialRectangle;overflow=hidden;connectable=0;fillColor=none;top=0;left=0;bottom=0;right=0;align=left;spacingLeft=6;" vertex="1" parent="tOqlNHjPIyKXLNiAF7Rj-54">
          <mxGeometry x="30" width="130" height="30" as="geometry">
            <mxRectangle width="130" height="30" as="alternateBounds" />
          </mxGeometry>
        </mxCell>
        <mxCell id="tOqlNHjPIyKXLNiAF7Rj-57" style="shape=partialRectangle;collapsible=0;dropTarget=0;pointerEvents=0;fillColor=none;points=[[0,0.5],[1,0.5]];portConstraint=eastwest;top=0;left=0;right=0;bottom=0;" vertex="1" parent="tOqlNHjPIyKXLNiAF7Rj-44">
          <mxGeometry y="150" width="160" height="30" as="geometry" />
        </mxCell>
        <mxCell id="tOqlNHjPIyKXLNiAF7Rj-58" style="shape=partialRectangle;overflow=hidden;connectable=0;fillColor=none;top=0;left=0;bottom=0;right=0;" vertex="1" parent="tOqlNHjPIyKXLNiAF7Rj-57">
          <mxGeometry width="30" height="30" as="geometry">
            <mxRectangle width="30" height="30" as="alternateBounds" />
          </mxGeometry>
        </mxCell>
        <mxCell id="tOqlNHjPIyKXLNiAF7Rj-59" value="Password" style="shape=partialRectangle;overflow=hidden;connectable=0;fillColor=none;top=0;left=0;bottom=0;right=0;align=left;spacingLeft=6;" vertex="1" parent="tOqlNHjPIyKXLNiAF7Rj-57">
          <mxGeometry x="30" width="130" height="30" as="geometry">
            <mxRectangle width="130" height="30" as="alternateBounds" />
          </mxGeometry>
        </mxCell>
        <mxCell id="tOqlNHjPIyKXLNiAF7Rj-60" style="shape=partialRectangle;collapsible=0;dropTarget=0;pointerEvents=0;fillColor=none;points=[[0,0.5],[1,0.5]];portConstraint=eastwest;top=0;left=0;right=0;bottom=0;" vertex="1" parent="tOqlNHjPIyKXLNiAF7Rj-44">
          <mxGeometry y="180" width="160" height="30" as="geometry" />
        </mxCell>
        <mxCell id="tOqlNHjPIyKXLNiAF7Rj-61" style="shape=partialRectangle;overflow=hidden;connectable=0;fillColor=none;top=0;left=0;bottom=0;right=0;" vertex="1" parent="tOqlNHjPIyKXLNiAF7Rj-60">
          <mxGeometry width="30" height="30" as="geometry">
            <mxRectangle width="30" height="30" as="alternateBounds" />
          </mxGeometry>
        </mxCell>
        <mxCell id="tOqlNHjPIyKXLNiAF7Rj-62" value="PhoneNumber" style="shape=partialRectangle;overflow=hidden;connectable=0;fillColor=none;top=0;left=0;bottom=0;right=0;align=left;spacingLeft=6;" vertex="1" parent="tOqlNHjPIyKXLNiAF7Rj-60">
          <mxGeometry x="30" width="130" height="30" as="geometry">
            <mxRectangle width="130" height="30" as="alternateBounds" />
          </mxGeometry>
        </mxCell>
        <mxCell id="9sJ__HinANQiuqFh1Y7t-1" style="shape=partialRectangle;collapsible=0;dropTarget=0;pointerEvents=0;fillColor=none;points=[[0,0.5],[1,0.5]];portConstraint=eastwest;top=0;left=0;right=0;bottom=0;" vertex="1" parent="tOqlNHjPIyKXLNiAF7Rj-44">
          <mxGeometry y="210" width="160" height="30" as="geometry" />
        </mxCell>
        <mxCell id="9sJ__HinANQiuqFh1Y7t-2" style="shape=partialRectangle;overflow=hidden;connectable=0;fillColor=none;top=0;left=0;bottom=0;right=0;" vertex="1" parent="9sJ__HinANQiuqFh1Y7t-1">
          <mxGeometry width="30" height="30" as="geometry">
            <mxRectangle width="30" height="30" as="alternateBounds" />
          </mxGeometry>
        </mxCell>
        <mxCell id="9sJ__HinANQiuqFh1Y7t-3" value="Email" style="shape=partialRectangle;overflow=hidden;connectable=0;fillColor=none;top=0;left=0;bottom=0;right=0;align=left;spacingLeft=6;" vertex="1" parent="9sJ__HinANQiuqFh1Y7t-1">
          <mxGeometry x="30" width="130" height="30" as="geometry">
            <mxRectangle width="130" height="30" as="alternateBounds" />
          </mxGeometry>
        </mxCell>
        <mxCell id="rCUMh2FOAEJa5Pzw-sdu-2" value="" style="edgeStyle=orthogonalEdgeStyle;rounded=0;orthogonalLoop=1;jettySize=auto;html=1;startArrow=ERzeroToMany;startFill=0;endArrow=ERmandOne;endFill=0;" edge="1" parent="1" source="J1xMdlODE-B5Do8n8Xwq-1" target="tOqlNHjPIyKXLNiAF7Rj-32">
          <mxGeometry relative="1" as="geometry" />
        </mxCell>
        <mxCell id="rCUMh2FOAEJa5Pzw-sdu-8" style="edgeStyle=orthogonalEdgeStyle;rounded=0;orthogonalLoop=1;jettySize=auto;html=1;entryX=0;entryY=0.5;entryDx=0;entryDy=0;startArrow=ERmandOne;startFill=0;endArrow=ERoneToMany;endFill=0;" edge="1" parent="1" source="tOqlNHjPIyKXLNiAF7Rj-32" target="C-vyLk0tnHw3VtMMgP7b-9">
          <mxGeometry relative="1" as="geometry" />
        </mxCell>
        <mxCell id="Lam1AJtRqrxp9uYnha4o-4" style="edgeStyle=orthogonalEdgeStyle;rounded=0;orthogonalLoop=1;jettySize=auto;html=1;entryX=0;entryY=0.5;entryDx=0;entryDy=0;endArrow=ERmandOne;endFill=0;startArrow=ERoneToMany;startFill=0;" edge="1" parent="1" source="tOqlNHjPIyKXLNiAF7Rj-71" target="C-vyLk0tnHw3VtMMgP7b-24">
          <mxGeometry relative="1" as="geometry" />
        </mxCell>
      </root>
    </mxGraphModel>
  </diagram>
  <diagram id="Java0OQFIc4I14VdxydO" name="Pipeline_Model">
    <mxGraphModel grid="0" page="1" gridSize="10" guides="1" tooltips="1" connect="1" arrows="1" fold="1" pageScale="1" pageWidth="827" pageHeight="1169" math="0" shadow="0">
      <root>
        <mxCell id="0" />
        <mxCell id="1" parent="0" />
        <mxCell id="2HjfViH2NgjR_gL6e7CK-3" style="edgeStyle=orthogonalEdgeStyle;rounded=0;orthogonalLoop=1;jettySize=auto;html=1;entryX=0;entryY=0.5;entryDx=0;entryDy=0;" edge="1" parent="1" source="2HjfViH2NgjR_gL6e7CK-1" target="2HjfViH2NgjR_gL6e7CK-2">
          <mxGeometry relative="1" as="geometry" />
        </mxCell>
        <mxCell id="2HjfViH2NgjR_gL6e7CK-1" value="Raw Data" style="shape=datastore;whiteSpace=wrap;html=1;" vertex="1" parent="1">
          <mxGeometry x="180" y="140" width="60" height="60" as="geometry" />
        </mxCell>
        <mxCell id="2HjfViH2NgjR_gL6e7CK-5" style="edgeStyle=orthogonalEdgeStyle;rounded=0;orthogonalLoop=1;jettySize=auto;html=1;" edge="1" parent="1" source="2HjfViH2NgjR_gL6e7CK-2" target="2HjfViH2NgjR_gL6e7CK-4">
          <mxGeometry relative="1" as="geometry" />
        </mxCell>
        <mxCell id="2HjfViH2NgjR_gL6e7CK-2" value="Exploratory Data Analysis" style="rounded=1;whiteSpace=wrap;html=1;" vertex="1" parent="1">
          <mxGeometry x="280" y="140" width="120" height="60" as="geometry" />
        </mxCell>
        <mxCell id="2HjfViH2NgjR_gL6e7CK-7" value="" style="edgeStyle=orthogonalEdgeStyle;rounded=0;orthogonalLoop=1;jettySize=auto;html=1;" edge="1" parent="1" source="2HjfViH2NgjR_gL6e7CK-4" target="2HjfViH2NgjR_gL6e7CK-6">
          <mxGeometry relative="1" as="geometry" />
        </mxCell>
        <mxCell id="2HjfViH2NgjR_gL6e7CK-4" value="Feature Engineering" style="rounded=1;whiteSpace=wrap;html=1;" vertex="1" parent="1">
          <mxGeometry x="440" y="140" width="120" height="60" as="geometry" />
        </mxCell>
        <mxCell id="2HjfViH2NgjR_gL6e7CK-9" value="" style="edgeStyle=orthogonalEdgeStyle;rounded=0;orthogonalLoop=1;jettySize=auto;html=1;" edge="1" parent="1" source="2HjfViH2NgjR_gL6e7CK-6" target="2HjfViH2NgjR_gL6e7CK-8">
          <mxGeometry relative="1" as="geometry">
            <Array as="points">
              <mxPoint x="340" y="290" />
            </Array>
          </mxGeometry>
        </mxCell>
        <mxCell id="2HjfViH2NgjR_gL6e7CK-13" style="edgeStyle=orthogonalEdgeStyle;rounded=0;orthogonalLoop=1;jettySize=auto;html=1;entryX=0.5;entryY=0;entryDx=0;entryDy=0;" edge="1" parent="1" source="2HjfViH2NgjR_gL6e7CK-6" target="2HjfViH2NgjR_gL6e7CK-12">
          <mxGeometry relative="1" as="geometry">
            <Array as="points">
              <mxPoint x="660" y="290" />
            </Array>
          </mxGeometry>
        </mxCell>
        <mxCell id="2HjfViH2NgjR_gL6e7CK-6" value="Data Preprocessing" style="rounded=1;whiteSpace=wrap;html=1;" vertex="1" parent="1">
          <mxGeometry x="440" y="240" width="120" height="60" as="geometry" />
        </mxCell>
        <mxCell id="2HjfViH2NgjR_gL6e7CK-11" value="" style="edgeStyle=orthogonalEdgeStyle;rounded=0;orthogonalLoop=1;jettySize=auto;html=1;" edge="1" parent="1" source="2HjfViH2NgjR_gL6e7CK-8" target="2HjfViH2NgjR_gL6e7CK-10">
          <mxGeometry relative="1" as="geometry" />
        </mxCell>
        <mxCell id="2HjfViH2NgjR_gL6e7CK-8" value="Train Test Split" style="rounded=1;whiteSpace=wrap;html=1;" vertex="1" parent="1">
          <mxGeometry x="280" y="320" width="120" height="60" as="geometry" />
        </mxCell>
        <mxCell id="2HjfViH2NgjR_gL6e7CK-19" value="" style="edgeStyle=orthogonalEdgeStyle;rounded=0;orthogonalLoop=1;jettySize=auto;html=1;" edge="1" parent="1" source="2HjfViH2NgjR_gL6e7CK-10" target="2HjfViH2NgjR_gL6e7CK-18">
          <mxGeometry relative="1" as="geometry" />
        </mxCell>
        <mxCell id="2HjfViH2NgjR_gL6e7CK-10" value="TF-IDF Vectorization" style="rounded=1;whiteSpace=wrap;html=1;" vertex="1" parent="1">
          <mxGeometry x="280" y="410" width="120" height="60" as="geometry" />
        </mxCell>
        <mxCell id="2HjfViH2NgjR_gL6e7CK-15" value="" style="edgeStyle=orthogonalEdgeStyle;rounded=0;orthogonalLoop=1;jettySize=auto;html=1;" edge="1" parent="1" source="2HjfViH2NgjR_gL6e7CK-12" target="2HjfViH2NgjR_gL6e7CK-14">
          <mxGeometry relative="1" as="geometry" />
        </mxCell>
        <mxCell id="2HjfViH2NgjR_gL6e7CK-12" value="Train Test Val Split" style="rounded=1;whiteSpace=wrap;html=1;" vertex="1" parent="1">
          <mxGeometry x="600" y="320" width="120" height="60" as="geometry" />
        </mxCell>
        <mxCell id="2HjfViH2NgjR_gL6e7CK-17" value="" style="edgeStyle=orthogonalEdgeStyle;rounded=0;orthogonalLoop=1;jettySize=auto;html=1;" edge="1" parent="1" source="2HjfViH2NgjR_gL6e7CK-14" target="2HjfViH2NgjR_gL6e7CK-16">
          <mxGeometry relative="1" as="geometry" />
        </mxCell>
        <mxCell id="2HjfViH2NgjR_gL6e7CK-14" value="Tokenization &amp;amp; Padding" style="rounded=1;whiteSpace=wrap;html=1;" vertex="1" parent="1">
          <mxGeometry x="600" y="410" width="120" height="60" as="geometry" />
        </mxCell>
        <mxCell id="2HjfViH2NgjR_gL6e7CK-28" value="" style="edgeStyle=orthogonalEdgeStyle;rounded=0;orthogonalLoop=1;jettySize=auto;html=1;" edge="1" parent="1" source="2HjfViH2NgjR_gL6e7CK-16" target="2HjfViH2NgjR_gL6e7CK-27">
          <mxGeometry relative="1" as="geometry" />
        </mxCell>
        <mxCell id="2HjfViH2NgjR_gL6e7CK-16" value="Word Embedding" style="rounded=1;whiteSpace=wrap;html=1;" vertex="1" parent="1">
          <mxGeometry x="600" y="500" width="120" height="60" as="geometry" />
        </mxCell>
        <mxCell id="2HjfViH2NgjR_gL6e7CK-36" style="edgeStyle=orthogonalEdgeStyle;rounded=0;orthogonalLoop=1;jettySize=auto;html=1;entryX=0;entryY=0.5;entryDx=0;entryDy=0;" edge="1" parent="1" source="2HjfViH2NgjR_gL6e7CK-18" target="2HjfViH2NgjR_gL6e7CK-35">
          <mxGeometry relative="1" as="geometry" />
        </mxCell>
        <mxCell id="2HjfViH2NgjR_gL6e7CK-18" value="" style="rounded=0;whiteSpace=wrap;html=1;" vertex="1" parent="1">
          <mxGeometry x="192.5" y="500" width="295" height="155.5" as="geometry" />
        </mxCell>
        <mxCell id="2HjfViH2NgjR_gL6e7CK-20" value="BernourlliNB" style="rounded=1;whiteSpace=wrap;html=1;" vertex="1" parent="1">
          <mxGeometry x="207.5" y="512.5" width="120" height="60" as="geometry" />
        </mxCell>
        <mxCell id="2HjfViH2NgjR_gL6e7CK-21" value="Logistic Regression" style="rounded=1;whiteSpace=wrap;html=1;" vertex="1" parent="1">
          <mxGeometry x="347.5" y="512.5" width="120" height="60" as="geometry" />
        </mxCell>
        <mxCell id="2HjfViH2NgjR_gL6e7CK-22" value="Random Forest" style="rounded=1;whiteSpace=wrap;html=1;" vertex="1" parent="1">
          <mxGeometry x="207.5" y="585.5" width="120" height="60" as="geometry" />
        </mxCell>
        <mxCell id="2HjfViH2NgjR_gL6e7CK-23" value="SVC" style="rounded=1;whiteSpace=wrap;html=1;" vertex="1" parent="1">
          <mxGeometry x="347.5" y="585.5" width="120" height="60" as="geometry" />
        </mxCell>
        <mxCell id="2HjfViH2NgjR_gL6e7CK-37" style="edgeStyle=orthogonalEdgeStyle;rounded=0;orthogonalLoop=1;jettySize=auto;html=1;entryX=1;entryY=0.5;entryDx=0;entryDy=0;" edge="1" parent="1" source="2HjfViH2NgjR_gL6e7CK-27" target="2HjfViH2NgjR_gL6e7CK-35">
          <mxGeometry relative="1" as="geometry">
            <Array as="points">
              <mxPoint x="660" y="700" />
            </Array>
          </mxGeometry>
        </mxCell>
        <mxCell id="2HjfViH2NgjR_gL6e7CK-27" value="LSTM" style="rounded=1;whiteSpace=wrap;html=1;" vertex="1" parent="1">
          <mxGeometry x="600" y="585.5" width="120" height="60" as="geometry" />
        </mxCell>
        <mxCell id="2HjfViH2NgjR_gL6e7CK-39" value="" style="edgeStyle=orthogonalEdgeStyle;rounded=0;orthogonalLoop=1;jettySize=auto;html=1;" edge="1" parent="1" source="2HjfViH2NgjR_gL6e7CK-35" target="2HjfViH2NgjR_gL6e7CK-38">
          <mxGeometry relative="1" as="geometry" />
        </mxCell>
        <mxCell id="2HjfViH2NgjR_gL6e7CK-35" value="Confusion Matrix" style="rounded=1;whiteSpace=wrap;html=1;" vertex="1" parent="1">
          <mxGeometry x="440" y="670" width="120" height="60" as="geometry" />
        </mxCell>
        <mxCell id="2HjfViH2NgjR_gL6e7CK-38" value="Choose the best algorithm" style="rounded=1;whiteSpace=wrap;html=1;" vertex="1" parent="1">
          <mxGeometry x="440" y="750" width="120" height="60" as="geometry" />
        </mxCell>
      </root>
    </mxGraphModel>
  </diagram>
  <diagram id="beR9JLetZ943eymgdKgV" name="App workflow">
    <mxGraphModel grid="1" page="1" gridSize="10" guides="1" tooltips="1" connect="1" arrows="1" fold="1" pageScale="1" pageWidth="827" pageHeight="1169" math="0" shadow="0">
      <root>
        <mxCell id="0" />
        <mxCell id="1" parent="0" />
        <mxCell id="J7nkAAUD_FauP28pJ0MU-1" value="Identify pain points" style="rounded=1;whiteSpace=wrap;html=1;" vertex="1" parent="1">
          <mxGeometry x="320" y="100" width="120" height="60" as="geometry" />
        </mxCell>
        <mxCell id="J7nkAAUD_FauP28pJ0MU-2" value="Identify the resources and scope&amp;nbsp;" style="rounded=1;whiteSpace=wrap;html=1;" vertex="1" parent="1">
          <mxGeometry x="480" y="200" width="120" height="60" as="geometry" />
        </mxCell>
        <mxCell id="J7nkAAUD_FauP28pJ0MU-3" value="System Design and Analysis" style="rounded=1;whiteSpace=wrap;html=1;" vertex="1" parent="1">
          <mxGeometry x="480" y="320" width="120" height="60" as="geometry" />
        </mxCell>
        <mxCell id="J7nkAAUD_FauP28pJ0MU-4" value="Implement" style="rounded=1;whiteSpace=wrap;html=1;" vertex="1" parent="1">
          <mxGeometry x="320" y="440" width="120" height="60" as="geometry" />
        </mxCell>
        <mxCell id="J7nkAAUD_FauP28pJ0MU-5" value="Testing" style="rounded=1;whiteSpace=wrap;html=1;" vertex="1" parent="1">
          <mxGeometry x="160" y="320" width="120" height="60" as="geometry" />
        </mxCell>
        <mxCell id="J7nkAAUD_FauP28pJ0MU-6" value="Deployment" style="rounded=1;whiteSpace=wrap;html=1;" vertex="1" parent="1">
          <mxGeometry x="160" y="200" width="120" height="60" as="geometry" />
        </mxCell>
        <mxCell id="J7nkAAUD_FauP28pJ0MU-7" value="" style="html=1;shadow=0;dashed=0;align=center;verticalAlign=middle;shape=mxgraph.arrows2.bendArrow;dy=15;dx=38;notch=0;arrowHead=55;rounded=1;" vertex="1" parent="1">
          <mxGeometry x="190" y="100" width="90" height="90" as="geometry" />
        </mxCell>
        <mxCell id="J7nkAAUD_FauP28pJ0MU-8" value="" style="html=1;shadow=0;dashed=0;align=center;verticalAlign=middle;shape=mxgraph.arrows2.bendArrow;dy=15;dx=38;notch=0;arrowHead=55;rounded=1;rotation=90;" vertex="1" parent="1">
          <mxGeometry x="480" y="100" width="90" height="90" as="geometry" />
        </mxCell>
        <mxCell id="J7nkAAUD_FauP28pJ0MU-9" value="" style="html=1;shadow=0;dashed=0;align=center;verticalAlign=middle;shape=mxgraph.arrows2.bendArrow;dy=15;dx=38;notch=0;arrowHead=55;rounded=1;rotation=-180;" vertex="1" parent="1">
          <mxGeometry x="480" y="390" width="90" height="90" as="geometry" />
        </mxCell>
        <mxCell id="J7nkAAUD_FauP28pJ0MU-10" value="" style="html=1;shadow=0;dashed=0;align=center;verticalAlign=middle;shape=mxgraph.arrows2.bendArrow;dy=15;dx=38;notch=0;arrowHead=55;rounded=1;rotation=-90;" vertex="1" parent="1">
          <mxGeometry x="190" y="390" width="90" height="90" as="geometry" />
        </mxCell>
        <mxCell id="J7nkAAUD_FauP28pJ0MU-12" value="" style="html=1;shadow=0;dashed=0;align=center;verticalAlign=middle;shape=mxgraph.arrows2.arrow;dy=0.67;dx=20;notch=0;rotation=-90;" vertex="1" parent="1">
          <mxGeometry x="200" y="260" width="40" height="60" as="geometry" />
        </mxCell>
        <mxCell id="J7nkAAUD_FauP28pJ0MU-13" value="" style="html=1;shadow=0;dashed=0;align=center;verticalAlign=middle;shape=mxgraph.arrows2.arrow;dy=0.67;dx=20;notch=0;rotation=90;" vertex="1" parent="1">
          <mxGeometry x="520" y="260" width="40" height="60" as="geometry" />
        </mxCell>
      </root>
    </mxGraphModel>
  </diagram>
  <diagram id="52U8DbaiCW7gjymFgQ3o" name="Use case diagram">
    <mxGraphModel grid="1" page="1" gridSize="10" guides="1" tooltips="1" connect="1" arrows="1" fold="1" pageScale="1" pageWidth="850" pageHeight="1100" math="0" shadow="0">
      <root>
        <mxCell id="0" />
        <mxCell id="1" parent="0" />
        <mxCell id="IU3jhvPzo8ehjQllM8Ls-1" value="" style="rounded=0;whiteSpace=wrap;html=1;fillColor=none;movable=1;resizable=1;rotatable=1;deletable=1;editable=1;locked=0;connectable=1;" vertex="1" parent="1">
          <mxGeometry x="160" y="70" width="810" height="1430" as="geometry" />
        </mxCell>
        <mxCell id="IU3jhvPzo8ehjQllM8Ls-2" value="UC1 - Register account" style="ellipse;whiteSpace=wrap;html=1;" vertex="1" parent="1">
          <mxGeometry x="220" y="100" width="120" height="80" as="geometry" />
        </mxCell>
        <mxCell id="IU3jhvPzo8ehjQllM8Ls-3" value="Admin" style="shape=umlActor;verticalLabelPosition=bottom;verticalAlign=top;html=1;outlineConnect=0;" vertex="1" parent="1">
          <mxGeometry x="70" y="370" width="30" height="60" as="geometry" />
        </mxCell>
        <mxCell id="IU3jhvPzo8ehjQllM8Ls-4" value="UC 2 - Login" style="ellipse;whiteSpace=wrap;html=1;" vertex="1" parent="1">
          <mxGeometry x="400" y="100" width="120" height="80" as="geometry" />
        </mxCell>
        <mxCell id="IU3jhvPzo8ehjQllM8Ls-5" value="UC 7 - Crawl data" style="ellipse;whiteSpace=wrap;html=1;" vertex="1" parent="1">
          <mxGeometry x="400" y="440" width="120" height="80" as="geometry" />
        </mxCell>
        <mxCell id="IU3jhvPzo8ehjQllM8Ls-6" style="edgeStyle=orthogonalEdgeStyle;rounded=0;orthogonalLoop=1;jettySize=auto;html=1;dashed=1;dashPattern=8 8;endArrow=openThin;endFill=0;" edge="1" parent="1" source="IU3jhvPzo8ehjQllM8Ls-8" target="IU3jhvPzo8ehjQllM8Ls-5">
          <mxGeometry relative="1" as="geometry" />
        </mxCell>
        <mxCell id="IU3jhvPzo8ehjQllM8Ls-7" value="&amp;lt;&amp;lt;include&amp;gt;&amp;gt;" style="edgeLabel;html=1;align=center;verticalAlign=middle;resizable=0;points=[];" connectable="0" vertex="1" parent="IU3jhvPzo8ehjQllM8Ls-6">
          <mxGeometry x="-0.1" y="-2" relative="1" as="geometry">
            <mxPoint as="offset" />
          </mxGeometry>
        </mxCell>
        <mxCell id="IU3jhvPzo8ehjQllM8Ls-8" value="UC 8 - Generate sentiment report" style="ellipse;whiteSpace=wrap;html=1;" vertex="1" parent="1">
          <mxGeometry x="400" y="560" width="120" height="80" as="geometry" />
        </mxCell>
        <mxCell id="IU3jhvPzo8ehjQllM8Ls-9" value="UC 16 - View data" style="ellipse;whiteSpace=wrap;html=1;" vertex="1" parent="1">
          <mxGeometry x="220" y="1140" width="120" height="80" as="geometry" />
        </mxCell>
        <mxCell id="IU3jhvPzo8ehjQllM8Ls-10" style="edgeStyle=orthogonalEdgeStyle;rounded=0;orthogonalLoop=1;jettySize=auto;html=1;dashed=1;dashPattern=8 8;endArrow=openThin;endFill=0;exitX=0;exitY=0.5;exitDx=0;exitDy=0;entryX=1;entryY=0.5;entryDx=0;entryDy=0;" edge="1" parent="1" source="IU3jhvPzo8ehjQllM8Ls-12" target="IU3jhvPzo8ehjQllM8Ls-4">
          <mxGeometry relative="1" as="geometry">
            <mxPoint x="630" y="170" as="sourcePoint" />
            <mxPoint x="520" y="170" as="targetPoint" />
          </mxGeometry>
        </mxCell>
        <mxCell id="IU3jhvPzo8ehjQllM8Ls-11" value="&amp;lt;&amp;lt;extend&amp;gt;&amp;gt;" style="edgeLabel;html=1;align=center;verticalAlign=middle;resizable=0;points=[];" connectable="0" vertex="1" parent="IU3jhvPzo8ehjQllM8Ls-10">
          <mxGeometry x="-0.025" y="-3" relative="1" as="geometry">
            <mxPoint x="-1" y="-7" as="offset" />
          </mxGeometry>
        </mxCell>
        <mxCell id="IU3jhvPzo8ehjQllM8Ls-12" value="UC 3 - Forget password" style="ellipse;whiteSpace=wrap;html=1;" vertex="1" parent="1">
          <mxGeometry x="630" y="100" width="120" height="80" as="geometry" />
        </mxCell>
        <mxCell id="IU3jhvPzo8ehjQllM8Ls-13" value="Sentiment Analysis" style="text;html=1;align=center;verticalAlign=middle;whiteSpace=wrap;rounded=0;fontStyle=1" vertex="1" parent="1">
          <mxGeometry x="500" y="70" width="130" height="30" as="geometry" />
        </mxCell>
        <mxCell id="IU3jhvPzo8ehjQllM8Ls-14" value="" style="endArrow=none;html=1;rounded=0;entryX=0;entryY=0.5;entryDx=0;entryDy=0;" edge="1" parent="1" source="IU3jhvPzo8ehjQllM8Ls-3" target="IU3jhvPzo8ehjQllM8Ls-2">
          <mxGeometry width="50" height="50" relative="1" as="geometry">
            <mxPoint x="370" y="420" as="sourcePoint" />
            <mxPoint x="420" y="370" as="targetPoint" />
          </mxGeometry>
        </mxCell>
        <mxCell id="IU3jhvPzo8ehjQllM8Ls-15" value="" style="endArrow=none;html=1;rounded=0;entryX=0;entryY=0.5;entryDx=0;entryDy=0;" edge="1" parent="1" source="IU3jhvPzo8ehjQllM8Ls-3" target="IU3jhvPzo8ehjQllM8Ls-4">
          <mxGeometry width="50" height="50" relative="1" as="geometry">
            <mxPoint x="370" y="370" as="sourcePoint" />
            <mxPoint x="420" y="320" as="targetPoint" />
          </mxGeometry>
        </mxCell>
        <mxCell id="IU3jhvPzo8ehjQllM8Ls-16" value="" style="endArrow=none;html=1;rounded=0;entryX=0;entryY=0.5;entryDx=0;entryDy=0;" edge="1" parent="1" source="IU3jhvPzo8ehjQllM8Ls-3" target="IU3jhvPzo8ehjQllM8Ls-9">
          <mxGeometry width="50" height="50" relative="1" as="geometry">
            <mxPoint x="370" y="570" as="sourcePoint" />
            <mxPoint x="420" y="520" as="targetPoint" />
          </mxGeometry>
        </mxCell>
        <mxCell id="IU3jhvPzo8ehjQllM8Ls-17" value="UC 9 - Simple statistics" style="ellipse;whiteSpace=wrap;html=1;" vertex="1" parent="1">
          <mxGeometry x="560" y="440" width="110" height="80" as="geometry" />
        </mxCell>
        <mxCell id="IU3jhvPzo8ehjQllM8Ls-18" value="UC 10 -&amp;nbsp;Rating distribution" style="ellipse;whiteSpace=wrap;html=1;" vertex="1" parent="1">
          <mxGeometry x="700" y="440" width="110" height="80" as="geometry" />
        </mxCell>
        <mxCell id="IU3jhvPzo8ehjQllM8Ls-19" value="UC 11 - Ratio of positive and negative comments" style="ellipse;whiteSpace=wrap;html=1;" vertex="1" parent="1">
          <mxGeometry x="840" y="440" width="110" height="80" as="geometry" />
        </mxCell>
        <mxCell id="IU3jhvPzo8ehjQllM8Ls-20" value="" style="endArrow=openThin;html=1;rounded=0;exitX=0;exitY=1;exitDx=0;exitDy=0;entryX=0.899;entryY=0.219;entryDx=0;entryDy=0;dashed=1;dashPattern=8 8;endFill=0;startFill=0;entryPerimeter=0;" edge="1" parent="1" source="IU3jhvPzo8ehjQllM8Ls-17" target="IU3jhvPzo8ehjQllM8Ls-8">
          <mxGeometry width="50" height="50" relative="1" as="geometry">
            <mxPoint x="560" y="630" as="sourcePoint" />
            <mxPoint x="610" y="580" as="targetPoint" />
          </mxGeometry>
        </mxCell>
        <mxCell id="IU3jhvPzo8ehjQllM8Ls-21" value="&amp;lt;&amp;lt;extend&amp;gt;&amp;gt;" style="edgeLabel;html=1;align=center;verticalAlign=middle;resizable=0;points=[];" connectable="0" vertex="1" parent="1">
          <mxGeometry x="536.9996551724137" y="460" as="geometry">
            <mxPoint x="5" y="86" as="offset" />
          </mxGeometry>
        </mxCell>
        <mxCell id="IU3jhvPzo8ehjQllM8Ls-22" value="" style="endArrow=openThin;html=1;rounded=0;exitX=0;exitY=1;exitDx=0;exitDy=0;dashed=1;dashPattern=8 8;startFill=0;endFill=0;" edge="1" parent="1" source="IU3jhvPzo8ehjQllM8Ls-19" target="IU3jhvPzo8ehjQllM8Ls-8">
          <mxGeometry width="50" height="50" relative="1" as="geometry">
            <mxPoint x="560" y="660" as="sourcePoint" />
            <mxPoint x="510" y="600" as="targetPoint" />
          </mxGeometry>
        </mxCell>
        <mxCell id="IU3jhvPzo8ehjQllM8Ls-23" value="UC 17 - Customer" style="ellipse;whiteSpace=wrap;html=1;" vertex="1" parent="1">
          <mxGeometry x="400" y="870" width="120" height="80" as="geometry" />
        </mxCell>
        <mxCell id="IU3jhvPzo8ehjQllM8Ls-24" value="" style="endArrow=openThin;html=1;rounded=0;entryX=1;entryY=0.5;entryDx=0;entryDy=0;exitX=0;exitY=0.5;exitDx=0;exitDy=0;dashed=1;dashPattern=8 8;endFill=0;" edge="1" parent="1" source="IU3jhvPzo8ehjQllM8Ls-23" target="IU3jhvPzo8ehjQllM8Ls-9">
          <mxGeometry width="50" height="50" relative="1" as="geometry">
            <mxPoint x="420" y="1060" as="sourcePoint" />
            <mxPoint x="370" y="970" as="targetPoint" />
          </mxGeometry>
        </mxCell>
        <mxCell id="IU3jhvPzo8ehjQllM8Ls-25" value="&amp;lt;&amp;lt;extend&amp;gt;&amp;gt;" style="edgeLabel;html=1;align=center;verticalAlign=middle;resizable=0;points=[];" connectable="0" vertex="1" parent="1">
          <mxGeometry x="364.9996551724137" y="940" as="geometry">
            <mxPoint x="5" y="86" as="offset" />
          </mxGeometry>
        </mxCell>
        <mxCell id="IU3jhvPzo8ehjQllM8Ls-26" value="UC 12 - Rating trend" style="ellipse;whiteSpace=wrap;html=1;" vertex="1" parent="1">
          <mxGeometry x="840" y="560" width="110" height="80" as="geometry" />
        </mxCell>
        <mxCell id="IU3jhvPzo8ehjQllM8Ls-27" value="UC 13 - Customer distribution by country" style="ellipse;whiteSpace=wrap;html=1;" vertex="1" parent="1">
          <mxGeometry x="840" y="680" width="110" height="80" as="geometry" />
        </mxCell>
        <mxCell id="IU3jhvPzo8ehjQllM8Ls-28" value="" style="endArrow=openThin;html=1;rounded=0;dashed=1;dashPattern=8 8;startFill=0;endFill=0;" edge="1" parent="1" source="IU3jhvPzo8ehjQllM8Ls-18" target="IU3jhvPzo8ehjQllM8Ls-8">
          <mxGeometry width="50" height="50" relative="1" as="geometry">
            <mxPoint x="650" y="480" as="sourcePoint" />
            <mxPoint x="570" y="650" as="targetPoint" />
          </mxGeometry>
        </mxCell>
        <mxCell id="IU3jhvPzo8ehjQllM8Ls-29" value="" style="endArrow=openThin;html=1;rounded=0;exitX=0;exitY=0.5;exitDx=0;exitDy=0;dashed=1;dashPattern=8 8;entryX=1;entryY=0.5;entryDx=0;entryDy=0;startFill=0;endFill=0;" edge="1" parent="1" source="IU3jhvPzo8ehjQllM8Ls-26" target="IU3jhvPzo8ehjQllM8Ls-8">
          <mxGeometry width="50" height="50" relative="1" as="geometry">
            <mxPoint x="740" y="590" as="sourcePoint" />
            <mxPoint x="510" y="660" as="targetPoint" />
          </mxGeometry>
        </mxCell>
        <mxCell id="IU3jhvPzo8ehjQllM8Ls-30" value="UC 14 - Rating by room type" style="ellipse;whiteSpace=wrap;html=1;" vertex="1" parent="1">
          <mxGeometry x="700" y="680" width="110" height="80" as="geometry" />
        </mxCell>
        <mxCell id="IU3jhvPzo8ehjQllM8Ls-31" value="UC 15 -&amp;nbsp;&lt;span style=&quot;background-color: transparent; color: light-dark(rgb(0, 0, 0), rgb(255, 255, 255));&quot;&gt;Length of stay distribution&lt;/span&gt;" style="ellipse;whiteSpace=wrap;html=1;" vertex="1" parent="1">
          <mxGeometry x="560" y="680" width="110" height="80" as="geometry" />
        </mxCell>
        <mxCell id="IU3jhvPzo8ehjQllM8Ls-32" value="" style="endArrow=openThin;html=1;rounded=0;dashed=1;dashPattern=8 8;exitX=0;exitY=0;exitDx=0;exitDy=0;startFill=0;endFill=0;" edge="1" parent="1" source="IU3jhvPzo8ehjQllM8Ls-27" target="IU3jhvPzo8ehjQllM8Ls-8">
          <mxGeometry width="50" height="50" relative="1" as="geometry">
            <mxPoint x="750" y="700" as="sourcePoint" />
            <mxPoint x="510" y="700" as="targetPoint" />
          </mxGeometry>
        </mxCell>
        <mxCell id="IU3jhvPzo8ehjQllM8Ls-33" value="" style="endArrow=openThin;html=1;rounded=0;dashed=1;dashPattern=8 8;exitX=0.083;exitY=0.25;exitDx=0;exitDy=0;exitPerimeter=0;startFill=0;endFill=0;" edge="1" parent="1" source="IU3jhvPzo8ehjQllM8Ls-30" target="IU3jhvPzo8ehjQllM8Ls-8">
          <mxGeometry width="50" height="50" relative="1" as="geometry">
            <mxPoint x="740" y="770" as="sourcePoint" />
            <mxPoint x="500" y="670" as="targetPoint" />
          </mxGeometry>
        </mxCell>
        <mxCell id="IU3jhvPzo8ehjQllM8Ls-34" value="" style="endArrow=openThin;html=1;rounded=0;dashed=1;dashPattern=8 8;exitX=0;exitY=0;exitDx=0;exitDy=0;startFill=0;endFill=0;entryX=0.919;entryY=0.791;entryDx=0;entryDy=0;entryPerimeter=0;" edge="1" parent="1" source="IU3jhvPzo8ehjQllM8Ls-31" target="IU3jhvPzo8ehjQllM8Ls-8">
          <mxGeometry width="50" height="50" relative="1" as="geometry">
            <mxPoint x="728" y="852" as="sourcePoint" />
            <mxPoint x="470" y="680" as="targetPoint" />
          </mxGeometry>
        </mxCell>
        <mxCell id="IU3jhvPzo8ehjQllM8Ls-35" value="&amp;lt;&amp;lt;extend&amp;gt;&amp;gt;" style="edgeLabel;html=1;align=center;verticalAlign=middle;resizable=0;points=[];" connectable="0" vertex="1" parent="1">
          <mxGeometry x="614.9996551724137" y="460" as="geometry">
            <mxPoint x="5" y="86" as="offset" />
          </mxGeometry>
        </mxCell>
        <mxCell id="IU3jhvPzo8ehjQllM8Ls-36" value="&amp;lt;&amp;lt;extend&amp;gt;&amp;gt;" style="edgeLabel;html=1;align=center;verticalAlign=middle;resizable=0;points=[];" connectable="0" vertex="1" parent="1">
          <mxGeometry x="689.9996551724137" y="510" as="geometry">
            <mxPoint x="5" y="86" as="offset" />
          </mxGeometry>
        </mxCell>
        <mxCell id="IU3jhvPzo8ehjQllM8Ls-37" value="&amp;lt;&amp;lt;extend&amp;gt;&amp;gt;" style="edgeLabel;html=1;align=center;verticalAlign=middle;resizable=0;points=[];" connectable="0" vertex="1" parent="1">
          <mxGeometry x="614.9996551724137" y="560" as="geometry">
            <mxPoint x="5" y="86" as="offset" />
          </mxGeometry>
        </mxCell>
        <mxCell id="IU3jhvPzo8ehjQllM8Ls-38" value="&amp;lt;&amp;lt;extend&amp;gt;&amp;gt;" style="edgeLabel;html=1;align=center;verticalAlign=middle;resizable=0;points=[];" connectable="0" vertex="1" parent="1">
          <mxGeometry x="689.9996551724137" y="460" as="geometry">
            <mxPoint x="5" y="86" as="offset" />
          </mxGeometry>
        </mxCell>
        <mxCell id="IU3jhvPzo8ehjQllM8Ls-39" value="&amp;lt;&amp;lt;extend&amp;gt;&amp;gt;" style="edgeLabel;html=1;align=center;verticalAlign=middle;resizable=0;points=[];" connectable="0" vertex="1" parent="1">
          <mxGeometry x="690.9996551724137" y="560" as="geometry">
            <mxPoint x="5" y="86" as="offset" />
          </mxGeometry>
        </mxCell>
        <mxCell id="IU3jhvPzo8ehjQllM8Ls-40" value="&amp;lt;&amp;lt;extend&amp;gt;&amp;gt;" style="edgeLabel;html=1;align=center;verticalAlign=middle;resizable=0;points=[];" connectable="0" vertex="1" parent="1">
          <mxGeometry x="539.9996551724137" y="560" as="geometry">
            <mxPoint x="5" y="86" as="offset" />
          </mxGeometry>
        </mxCell>
        <mxCell id="IU3jhvPzo8ehjQllM8Ls-41" value="UC 29 - Comment" style="ellipse;whiteSpace=wrap;html=1;" vertex="1" parent="1">
          <mxGeometry x="400" y="1310" width="120" height="80" as="geometry" />
        </mxCell>
        <mxCell id="IU3jhvPzo8ehjQllM8Ls-42" value="UC 31 - Country" style="ellipse;whiteSpace=wrap;html=1;" vertex="1" parent="1">
          <mxGeometry x="400" y="1410" width="120" height="80" as="geometry" />
        </mxCell>
        <mxCell id="IU3jhvPzo8ehjQllM8Ls-43" value="" style="endArrow=openThin;html=1;rounded=0;entryX=1;entryY=0.5;entryDx=0;entryDy=0;exitX=0;exitY=0.5;exitDx=0;exitDy=0;dashed=1;dashPattern=8 8;endFill=0;" edge="1" parent="1" source="IU3jhvPzo8ehjQllM8Ls-41" target="IU3jhvPzo8ehjQllM8Ls-9">
          <mxGeometry width="50" height="50" relative="1" as="geometry">
            <mxPoint x="405" y="1400" as="sourcePoint" />
            <mxPoint x="355" y="1240" as="targetPoint" />
          </mxGeometry>
        </mxCell>
        <mxCell id="IU3jhvPzo8ehjQllM8Ls-44" value="" style="endArrow=openThin;html=1;rounded=0;entryX=1;entryY=0.5;entryDx=0;entryDy=0;exitX=0;exitY=0.5;exitDx=0;exitDy=0;dashed=1;dashPattern=8 8;endFill=0;" edge="1" parent="1" source="IU3jhvPzo8ehjQllM8Ls-42" target="IU3jhvPzo8ehjQllM8Ls-9">
          <mxGeometry width="50" height="50" relative="1" as="geometry">
            <mxPoint x="405" y="1400" as="sourcePoint" />
            <mxPoint x="355" y="1240" as="targetPoint" />
          </mxGeometry>
        </mxCell>
        <mxCell id="IU3jhvPzo8ehjQllM8Ls-45" value="&amp;lt;&amp;lt;extend&amp;gt;&amp;gt;" style="edgeLabel;html=1;align=center;verticalAlign=middle;resizable=0;points=[];" connectable="0" vertex="1" parent="IU3jhvPzo8ehjQllM8Ls-44">
          <mxGeometry x="0.2475" y="2" relative="1" as="geometry">
            <mxPoint x="9" y="-12" as="offset" />
          </mxGeometry>
        </mxCell>
        <mxCell id="IU3jhvPzo8ehjQllM8Ls-46" value="&amp;lt;&amp;lt;extend&amp;gt;&amp;gt;" style="edgeLabel;html=1;align=center;verticalAlign=middle;resizable=0;points=[];" connectable="0" vertex="1" parent="IU3jhvPzo8ehjQllM8Ls-44">
          <mxGeometry x="0.2475" y="2" relative="1" as="geometry">
            <mxPoint x="189" y="58" as="offset" />
          </mxGeometry>
        </mxCell>
        <mxCell id="IU3jhvPzo8ehjQllM8Ls-47" value="&amp;lt;&amp;lt;extend&amp;gt;&amp;gt;" style="edgeLabel;html=1;align=center;verticalAlign=middle;resizable=0;points=[];" connectable="0" vertex="1" parent="IU3jhvPzo8ehjQllM8Ls-44">
          <mxGeometry x="0.2475" y="2" relative="1" as="geometry">
            <mxPoint x="189" y="158" as="offset" />
          </mxGeometry>
        </mxCell>
        <mxCell id="IU3jhvPzo8ehjQllM8Ls-48" value="UC 18 -&lt;div&gt;&amp;nbsp;Filter data&lt;/div&gt;" style="ellipse;whiteSpace=wrap;html=1;" vertex="1" parent="1">
          <mxGeometry x="580" y="790" width="80" height="80" as="geometry" />
        </mxCell>
        <mxCell id="IU3jhvPzo8ehjQllM8Ls-49" value="" style="endArrow=openThin;html=1;rounded=0;dashed=1;dashPattern=8 8;endFill=0;entryX=0.962;entryY=0.298;entryDx=0;entryDy=0;entryPerimeter=0;" edge="1" parent="1" source="IU3jhvPzo8ehjQllM8Ls-48" target="IU3jhvPzo8ehjQllM8Ls-23">
          <mxGeometry width="50" height="50" relative="1" as="geometry">
            <mxPoint x="650" y="800" as="sourcePoint" />
            <mxPoint x="570" y="950" as="targetPoint" />
          </mxGeometry>
        </mxCell>
        <mxCell id="IU3jhvPzo8ehjQllM8Ls-50" value="UC 19 -&lt;div&gt;Add data&lt;/div&gt;" style="ellipse;whiteSpace=wrap;html=1;" vertex="1" parent="1">
          <mxGeometry x="700" y="790" width="80" height="80" as="geometry" />
        </mxCell>
        <mxCell id="IU3jhvPzo8ehjQllM8Ls-51" value="" style="endArrow=openThin;html=1;rounded=0;dashed=1;dashPattern=8 8;exitX=0;exitY=1;exitDx=0;exitDy=0;endFill=0;" edge="1" parent="1" source="IU3jhvPzo8ehjQllM8Ls-50" target="IU3jhvPzo8ehjQllM8Ls-23">
          <mxGeometry width="50" height="50" relative="1" as="geometry">
            <mxPoint x="650" y="900" as="sourcePoint" />
            <mxPoint x="570" y="920" as="targetPoint" />
          </mxGeometry>
        </mxCell>
        <mxCell id="IU3jhvPzo8ehjQllM8Ls-52" value="UC 20 - Update data" style="ellipse;whiteSpace=wrap;html=1;" vertex="1" parent="1">
          <mxGeometry x="780" y="870" width="80" height="80" as="geometry" />
        </mxCell>
        <mxCell id="IU3jhvPzo8ehjQllM8Ls-53" value="" style="endArrow=openThin;html=1;rounded=0;entryX=1;entryY=0.5;entryDx=0;entryDy=0;dashed=1;dashPattern=8 8;endFill=0;" edge="1" parent="1" source="IU3jhvPzo8ehjQllM8Ls-52" target="IU3jhvPzo8ehjQllM8Ls-23">
          <mxGeometry width="50" height="50" relative="1" as="geometry">
            <mxPoint x="650" y="1000" as="sourcePoint" />
            <mxPoint x="570" y="1020" as="targetPoint" />
          </mxGeometry>
        </mxCell>
        <mxCell id="IU3jhvPzo8ehjQllM8Ls-54" value="UC 21 -&amp;nbsp;&lt;div&gt;Save data&lt;/div&gt;" style="ellipse;whiteSpace=wrap;html=1;" vertex="1" parent="1">
          <mxGeometry x="700" y="950" width="80" height="80" as="geometry" />
        </mxCell>
        <mxCell id="IU3jhvPzo8ehjQllM8Ls-55" value="" style="endArrow=openThin;html=1;rounded=0;dashed=1;dashPattern=8 8;exitX=0;exitY=0;exitDx=0;exitDy=0;endFill=0;" edge="1" parent="1" source="IU3jhvPzo8ehjQllM8Ls-54" target="IU3jhvPzo8ehjQllM8Ls-23">
          <mxGeometry width="50" height="50" relative="1" as="geometry">
            <mxPoint x="640" y="1100" as="sourcePoint" />
            <mxPoint x="560" y="1120" as="targetPoint" />
          </mxGeometry>
        </mxCell>
        <mxCell id="IU3jhvPzo8ehjQllM8Ls-56" value="UC 22 - Delete data" style="ellipse;whiteSpace=wrap;html=1;" vertex="1" parent="1">
          <mxGeometry x="580" y="950" width="80" height="80" as="geometry" />
        </mxCell>
        <mxCell id="IU3jhvPzo8ehjQllM8Ls-57" value="" style="endArrow=openThin;html=1;rounded=0;dashed=1;dashPattern=8 8;endFill=0;entryX=0.976;entryY=0.699;entryDx=0;entryDy=0;entryPerimeter=0;" edge="1" parent="1" source="IU3jhvPzo8ehjQllM8Ls-56" target="IU3jhvPzo8ehjQllM8Ls-23">
          <mxGeometry width="50" height="50" relative="1" as="geometry">
            <mxPoint x="480" y="1142.5" as="sourcePoint" />
            <mxPoint x="570" y="950" as="targetPoint" />
          </mxGeometry>
        </mxCell>
        <mxCell id="IU3jhvPzo8ehjQllM8Ls-58" value="UC 23 - Hotel" style="ellipse;whiteSpace=wrap;html=1;" vertex="1" parent="1">
          <mxGeometry x="400" y="1140" width="120" height="80" as="geometry" />
        </mxCell>
        <mxCell id="IU3jhvPzo8ehjQllM8Ls-59" value="" style="endArrow=openThin;html=1;rounded=0;entryX=1;entryY=0.5;entryDx=0;entryDy=0;exitX=0;exitY=0.5;exitDx=0;exitDy=0;dashed=1;dashPattern=8 8;endFill=0;" edge="1" parent="1" source="IU3jhvPzo8ehjQllM8Ls-58" target="IU3jhvPzo8ehjQllM8Ls-9">
          <mxGeometry width="50" height="50" relative="1" as="geometry">
            <mxPoint x="415" y="1470" as="sourcePoint" />
            <mxPoint x="365" y="1380" as="targetPoint" />
          </mxGeometry>
        </mxCell>
        <mxCell id="IU3jhvPzo8ehjQllM8Ls-60" value="UC 24 -&lt;div&gt;&amp;nbsp;Filter data&lt;/div&gt;" style="ellipse;whiteSpace=wrap;html=1;" vertex="1" parent="1">
          <mxGeometry x="580" y="1060" width="80" height="80" as="geometry" />
        </mxCell>
        <mxCell id="IU3jhvPzo8ehjQllM8Ls-61" value="" style="endArrow=openThin;html=1;rounded=0;dashed=1;dashPattern=8 8;endFill=0;entryX=0.965;entryY=0.312;entryDx=0;entryDy=0;entryPerimeter=0;" edge="1" parent="1" source="IU3jhvPzo8ehjQllM8Ls-60" target="IU3jhvPzo8ehjQllM8Ls-58">
          <mxGeometry width="50" height="50" relative="1" as="geometry">
            <mxPoint x="635" y="1080" as="sourcePoint" />
            <mxPoint x="555" y="1230" as="targetPoint" />
          </mxGeometry>
        </mxCell>
        <mxCell id="IU3jhvPzo8ehjQllM8Ls-62" value="UC 25 -&lt;div&gt;Add data&lt;/div&gt;" style="ellipse;whiteSpace=wrap;html=1;" vertex="1" parent="1">
          <mxGeometry x="700" y="1060" width="80" height="80" as="geometry" />
        </mxCell>
        <mxCell id="IU3jhvPzo8ehjQllM8Ls-63" value="" style="endArrow=openThin;html=1;rounded=0;dashed=1;dashPattern=8 8;exitX=0;exitY=1;exitDx=0;exitDy=0;endFill=0;" edge="1" parent="1" source="IU3jhvPzo8ehjQllM8Ls-62" target="IU3jhvPzo8ehjQllM8Ls-58">
          <mxGeometry width="50" height="50" relative="1" as="geometry">
            <mxPoint x="635" y="1180" as="sourcePoint" />
            <mxPoint x="555" y="1200" as="targetPoint" />
          </mxGeometry>
        </mxCell>
        <mxCell id="IU3jhvPzo8ehjQllM8Ls-64" value="UC 26 - Update data" style="ellipse;whiteSpace=wrap;html=1;" vertex="1" parent="1">
          <mxGeometry x="780" y="1140" width="80" height="80" as="geometry" />
        </mxCell>
        <mxCell id="IU3jhvPzo8ehjQllM8Ls-65" value="" style="endArrow=openThin;html=1;rounded=0;entryX=1;entryY=0.5;entryDx=0;entryDy=0;dashed=1;dashPattern=8 8;endFill=0;" edge="1" parent="1" source="IU3jhvPzo8ehjQllM8Ls-64" target="IU3jhvPzo8ehjQllM8Ls-58">
          <mxGeometry width="50" height="50" relative="1" as="geometry">
            <mxPoint x="635" y="1280" as="sourcePoint" />
            <mxPoint x="555" y="1300" as="targetPoint" />
          </mxGeometry>
        </mxCell>
        <mxCell id="IU3jhvPzo8ehjQllM8Ls-66" value="UC 27 -&amp;nbsp;&lt;div&gt;Save data&lt;/div&gt;" style="ellipse;whiteSpace=wrap;html=1;" vertex="1" parent="1">
          <mxGeometry x="700" y="1220" width="80" height="80" as="geometry" />
        </mxCell>
        <mxCell id="IU3jhvPzo8ehjQllM8Ls-67" value="" style="endArrow=openThin;html=1;rounded=0;dashed=1;dashPattern=8 8;exitX=0;exitY=0;exitDx=0;exitDy=0;endFill=0;" edge="1" parent="1" source="IU3jhvPzo8ehjQllM8Ls-66" target="IU3jhvPzo8ehjQllM8Ls-58">
          <mxGeometry width="50" height="50" relative="1" as="geometry">
            <mxPoint x="625" y="1380" as="sourcePoint" />
            <mxPoint x="545" y="1400" as="targetPoint" />
          </mxGeometry>
        </mxCell>
        <mxCell id="IU3jhvPzo8ehjQllM8Ls-68" value="UC 28 - Delete data" style="ellipse;whiteSpace=wrap;html=1;" vertex="1" parent="1">
          <mxGeometry x="580" y="1220" width="80" height="80" as="geometry" />
        </mxCell>
        <mxCell id="IU3jhvPzo8ehjQllM8Ls-69" value="" style="endArrow=openThin;html=1;rounded=0;dashed=1;dashPattern=8 8;endFill=0;entryX=0.962;entryY=0.716;entryDx=0;entryDy=0;entryPerimeter=0;" edge="1" parent="1" source="IU3jhvPzo8ehjQllM8Ls-68" target="IU3jhvPzo8ehjQllM8Ls-58">
          <mxGeometry width="50" height="50" relative="1" as="geometry">
            <mxPoint x="465" y="1422.5" as="sourcePoint" />
            <mxPoint x="555" y="1230" as="targetPoint" />
          </mxGeometry>
        </mxCell>
        <mxCell id="IU3jhvPzo8ehjQllM8Ls-70" value="UC 4 - Exit" style="ellipse;whiteSpace=wrap;html=1;" vertex="1" parent="1">
          <mxGeometry x="400" y="200" width="120" height="80" as="geometry" />
        </mxCell>
        <mxCell id="IU3jhvPzo8ehjQllM8Ls-71" value="" style="endArrow=none;html=1;rounded=0;entryX=0;entryY=0;entryDx=0;entryDy=0;" edge="1" parent="1" source="IU3jhvPzo8ehjQllM8Ls-3" target="IU3jhvPzo8ehjQllM8Ls-70">
          <mxGeometry width="50" height="50" relative="1" as="geometry">
            <mxPoint x="270" y="390.16" as="sourcePoint" />
            <mxPoint x="590" y="385.16" as="targetPoint" />
          </mxGeometry>
        </mxCell>
        <mxCell id="IU3jhvPzo8ehjQllM8Ls-72" value="UC 5 - Visualize Reviews" style="ellipse;whiteSpace=wrap;html=1;" vertex="1" parent="1">
          <mxGeometry x="220" y="320" width="120" height="80" as="geometry" />
        </mxCell>
        <mxCell id="IU3jhvPzo8ehjQllM8Ls-73" value="" style="endArrow=none;html=1;rounded=0;entryX=0;entryY=0.5;entryDx=0;entryDy=0;" edge="1" parent="1" source="IU3jhvPzo8ehjQllM8Ls-3" target="IU3jhvPzo8ehjQllM8Ls-72">
          <mxGeometry width="50" height="50" relative="1" as="geometry">
            <mxPoint x="-10" y="408" as="sourcePoint" />
            <mxPoint x="310" y="520" as="targetPoint" />
          </mxGeometry>
        </mxCell>
        <mxCell id="IU3jhvPzo8ehjQllM8Ls-74" style="edgeStyle=orthogonalEdgeStyle;rounded=0;orthogonalLoop=1;jettySize=auto;html=1;dashed=1;dashPattern=8 8;endArrow=openThin;endFill=0;" edge="1" parent="1" source="IU3jhvPzo8ehjQllM8Ls-75" target="IU3jhvPzo8ehjQllM8Ls-72">
          <mxGeometry relative="1" as="geometry" />
        </mxCell>
        <mxCell id="IU3jhvPzo8ehjQllM8Ls-75" value="UC 6 - Enter&amp;nbsp;&lt;div&gt;hotel link&lt;/div&gt;" style="ellipse;whiteSpace=wrap;html=1;" vertex="1" parent="1">
          <mxGeometry x="400" y="320" width="120" height="80" as="geometry" />
        </mxCell>
        <mxCell id="IU3jhvPzo8ehjQllM8Ls-76" style="edgeStyle=orthogonalEdgeStyle;rounded=0;orthogonalLoop=1;jettySize=auto;html=1;dashed=1;dashPattern=8 8;endArrow=openThin;endFill=0;" edge="1" parent="1" source="IU3jhvPzo8ehjQllM8Ls-5" target="IU3jhvPzo8ehjQllM8Ls-75">
          <mxGeometry relative="1" as="geometry">
            <mxPoint x="459.66" y="430" as="sourcePoint" />
            <mxPoint x="459.66" y="390" as="targetPoint" />
          </mxGeometry>
        </mxCell>
        <mxCell id="IU3jhvPzo8ehjQllM8Ls-77" value="&amp;lt;&amp;lt;include&amp;gt;&amp;gt;" style="edgeLabel;html=1;align=center;verticalAlign=middle;resizable=0;points=[];" connectable="0" vertex="1" parent="IU3jhvPzo8ehjQllM8Ls-76">
          <mxGeometry x="-0.1" y="-2" relative="1" as="geometry">
            <mxPoint x="-3" y="-8" as="offset" />
          </mxGeometry>
        </mxCell>
        <mxCell id="IU3jhvPzo8ehjQllM8Ls-78" value="&amp;lt;&amp;lt;include&amp;gt;&amp;gt;" style="edgeLabel;html=1;align=center;verticalAlign=middle;resizable=0;points=[];" connectable="0" vertex="1" parent="IU3jhvPzo8ehjQllM8Ls-76">
          <mxGeometry x="-0.1" y="-2" relative="1" as="geometry">
            <mxPoint x="-93" y="-72" as="offset" />
          </mxGeometry>
        </mxCell>
        <mxCell id="IU3jhvPzo8ehjQllM8Ls-79" value="UC 30 -&lt;div&gt;&amp;nbsp;Filter data&lt;/div&gt;" style="ellipse;whiteSpace=wrap;html=1;" vertex="1" parent="1">
          <mxGeometry x="580" y="1310" width="80" height="80" as="geometry" />
        </mxCell>
        <mxCell id="IU3jhvPzo8ehjQllM8Ls-80" value="" style="endArrow=openThin;html=1;rounded=0;entryX=1;entryY=0.5;entryDx=0;entryDy=0;dashed=1;dashPattern=8 8;endFill=0;" edge="1" parent="1" source="IU3jhvPzo8ehjQllM8Ls-79" target="IU3jhvPzo8ehjQllM8Ls-41">
          <mxGeometry width="50" height="50" relative="1" as="geometry">
            <mxPoint x="635" y="1330" as="sourcePoint" />
            <mxPoint x="520" y="1430" as="targetPoint" />
          </mxGeometry>
        </mxCell>
        <mxCell id="IU3jhvPzo8ehjQllM8Ls-81" value="UC 32 -&lt;div&gt;&amp;nbsp;Filter data&lt;/div&gt;" style="ellipse;whiteSpace=wrap;html=1;" vertex="1" parent="1">
          <mxGeometry x="580" y="1410" width="80" height="80" as="geometry" />
        </mxCell>
        <mxCell id="IU3jhvPzo8ehjQllM8Ls-82" value="" style="endArrow=openThin;html=1;rounded=0;entryX=1;entryY=0.5;entryDx=0;entryDy=0;dashed=1;dashPattern=8 8;endFill=0;" edge="1" parent="1" source="IU3jhvPzo8ehjQllM8Ls-81">
          <mxGeometry width="50" height="50" relative="1" as="geometry">
            <mxPoint x="635" y="1430" as="sourcePoint" />
            <mxPoint x="520" y="1450" as="targetPoint" />
          </mxGeometry>
        </mxCell>
        <mxCell id="IU3jhvPzo8ehjQllM8Ls-83" value="&amp;lt;&amp;lt;extend&amp;gt;&amp;gt;" style="edgeLabel;html=1;align=center;verticalAlign=middle;resizable=0;points=[];" connectable="0" vertex="1" parent="1">
          <mxGeometry x="365.9996551724137" y="1085" as="geometry">
            <mxPoint x="5" y="86" as="offset" />
          </mxGeometry>
        </mxCell>
        <mxCell id="IU3jhvPzo8ehjQllM8Ls-84" value="&amp;lt;&amp;lt;extend&amp;gt;&amp;gt;" style="edgeLabel;html=1;align=center;verticalAlign=middle;resizable=0;points=[];" connectable="0" vertex="1" parent="1">
          <mxGeometry x="549.9996551724137" y="1060" as="geometry">
            <mxPoint x="5" y="86" as="offset" />
          </mxGeometry>
        </mxCell>
        <mxCell id="IU3jhvPzo8ehjQllM8Ls-85" value="&amp;lt;&amp;lt;extend&amp;gt;&amp;gt;" style="edgeLabel;html=1;align=center;verticalAlign=middle;resizable=0;points=[];" connectable="0" vertex="1" parent="1">
          <mxGeometry x="629.9996551724137" y="1060" as="geometry">
            <mxPoint x="5" y="86" as="offset" />
          </mxGeometry>
        </mxCell>
        <mxCell id="IU3jhvPzo8ehjQllM8Ls-86" value="&amp;lt;&amp;lt;extend&amp;gt;&amp;gt;" style="edgeLabel;html=1;align=center;verticalAlign=middle;resizable=0;points=[];" connectable="0" vertex="1" parent="1">
          <mxGeometry x="629.9996551724137" y="1090" as="geometry">
            <mxPoint x="5" y="86" as="offset" />
          </mxGeometry>
        </mxCell>
        <mxCell id="IU3jhvPzo8ehjQllM8Ls-87" value="&amp;lt;&amp;lt;extend&amp;gt;&amp;gt;" style="edgeLabel;html=1;align=center;verticalAlign=middle;resizable=0;points=[];" connectable="0" vertex="1" parent="1">
          <mxGeometry x="629.9996551724137" y="1120" as="geometry">
            <mxPoint x="5" y="86" as="offset" />
          </mxGeometry>
        </mxCell>
        <mxCell id="IU3jhvPzo8ehjQllM8Ls-88" value="&amp;lt;&amp;lt;extend&amp;gt;&amp;gt;" style="edgeLabel;html=1;align=center;verticalAlign=middle;resizable=0;points=[];" connectable="0" vertex="1" parent="1">
          <mxGeometry x="549.9996551724137" y="1120" as="geometry">
            <mxPoint x="5" y="86" as="offset" />
          </mxGeometry>
        </mxCell>
        <mxCell id="IU3jhvPzo8ehjQllM8Ls-89" value="&amp;lt;&amp;lt;extend&amp;gt;&amp;gt;" style="edgeLabel;html=1;align=center;verticalAlign=middle;resizable=0;points=[];" connectable="0" vertex="1" parent="1">
          <mxGeometry x="529.9996551724137" y="780" as="geometry">
            <mxPoint x="5" y="86" as="offset" />
          </mxGeometry>
        </mxCell>
        <mxCell id="IU3jhvPzo8ehjQllM8Ls-90" value="&amp;lt;&amp;lt;extend&amp;gt;&amp;gt;" style="edgeLabel;html=1;align=center;verticalAlign=middle;resizable=0;points=[];" connectable="0" vertex="1" parent="1">
          <mxGeometry x="589.9996551724137" y="798" as="geometry">
            <mxPoint x="5" y="86" as="offset" />
          </mxGeometry>
        </mxCell>
        <mxCell id="IU3jhvPzo8ehjQllM8Ls-91" value="&amp;lt;&amp;lt;extend&amp;gt;&amp;gt;" style="edgeLabel;html=1;align=center;verticalAlign=middle;resizable=0;points=[];" connectable="0" vertex="1" parent="1">
          <mxGeometry x="589.9996551724137" y="825" as="geometry">
            <mxPoint x="5" y="86" as="offset" />
          </mxGeometry>
        </mxCell>
        <mxCell id="IU3jhvPzo8ehjQllM8Ls-92" value="&amp;lt;&amp;lt;extend&amp;gt;&amp;gt;" style="edgeLabel;html=1;align=center;verticalAlign=middle;resizable=0;points=[];" connectable="0" vertex="1" parent="1">
          <mxGeometry x="589.9996551724137" y="850" as="geometry">
            <mxPoint x="5" y="86" as="offset" />
          </mxGeometry>
        </mxCell>
        <mxCell id="IU3jhvPzo8ehjQllM8Ls-93" value="&amp;lt;&amp;lt;extend&amp;gt;&amp;gt;" style="edgeLabel;html=1;align=center;verticalAlign=middle;resizable=0;points=[];" connectable="0" vertex="1" parent="1">
          <mxGeometry x="529.9996551724137" y="870" as="geometry">
            <mxPoint x="5" y="86" as="offset" />
          </mxGeometry>
        </mxCell>
      </root>
    </mxGraphModel>
  </diagram>
</mxfile>
